<svg width="24" height="24" viewBox="0 0 24 24" fill="none" xmlns="http://www.w3.org/2000/svg">
<path d="M20.5553 1H3.4442C2.09976 1 0.999756 2.1 0.999756 3.44444V20.5556C0.999756 21.9012 2.09976 23 3.4442 23H11.9998V14.4444H9.55531V11.4194H11.9998V8.91389C11.9998 6.269 13.4811 4.41122 16.6026 4.41122L18.8063 4.41367V7.59756H17.3433C16.1284 7.59756 15.6664 8.50933 15.6664 9.35511V11.4207H18.8051L18.1109 14.4444H15.6664V23H20.5553C21.8998 23 22.9998 21.9012 22.9998 20.5556V3.44444C22.9998 2.1 21.8998 1 20.5553 1Z" fill="white"/>
</svg>
