<svg width="24" height="24" viewBox="0 0 24 24" fill="none" xmlns="http://www.w3.org/2000/svg">
<path d="M20.9375 1H3.0625C1.92813 1 1 1.92813 1 3.0625V20.9375C1 22.0719 1.92813 23 3.0625 23H20.9375C22.0719 23 23 22.0719 23 20.9375V3.0625C23 1.92813 22.0719 1 20.9375 1ZM9.25 17.5C6.2085 17.5 3.75 15.0429 3.75 12C3.75 8.95712 6.2085 6.5 9.25 6.5C10.7364 6.5 11.978 7.04175 12.9364 7.93962L11.4404 9.37512C11.032 8.98462 10.3184 8.52812 9.24862 8.52812C7.37038 8.52812 5.83725 10.0833 5.83725 12C5.83725 13.9167 7.37175 15.4719 9.24862 15.4719C11.4266 15.4719 12.2434 13.9085 12.3685 13.1H9.24862V11.2135H14.4434C14.4901 11.4885 14.53 11.7635 14.53 12.1251C14.53 15.2697 12.4249 17.5 9.24862 17.5H9.25ZM20.25 12H18.875V13.375H17.5V12H16.125V10.625H17.5V9.25H18.875V10.625H20.25V12Z" fill="white"/>
</svg>
