<svg width="24" height="24" viewBox="0 0 24 24" fill="none" xmlns="http://www.w3.org/2000/svg">
<path d="M16.1249 12C16.1249 10.8542 15.7238 9.88021 14.9218 9.07812C14.1197 8.27604 13.1457 7.875 11.9999 7.875C10.854 7.875 9.88009 8.27604 9.078 9.07812C8.27592 9.88021 7.87488 10.8542 7.87488 12C7.87488 13.1458 8.27592 14.1198 9.078 14.9219C9.88009 15.724 10.854 16.125 11.9999 16.125C13.1457 16.125 14.1197 15.724 14.9218 14.9219C15.7238 14.1198 16.1249 13.1458 16.1249 12ZM0.999878 10.625V20.25C0.999878 21.0091 1.26843 21.6572 1.80554 22.1943C2.34265 22.7314 2.99076 23 3.74988 23H20.2499C21.009 23 21.6571 22.7314 22.1942 22.1943C22.7313 21.6572 22.9999 21.0091 22.9999 20.25V3.75C22.9999 2.99089 22.7313 2.34277 22.1942 1.80566C21.6571 1.26855 21.009 1 20.2499 1H3.74988C2.99076 1 2.34265 1.26855 1.80554 1.80566C1.26843 2.34277 0.999878 2.99089 0.999878 3.75V7.875H6.49988C7.14441 7.02995 7.94649 6.36035 8.90613 5.86621C9.86576 5.37207 10.897 5.125 11.9999 5.125C13.1027 5.125 14.134 5.37207 15.0936 5.86621C16.0533 6.36035 16.8553 7.02995 17.4999 7.875H22.9999V10.625H18.746C18.8319 11.0833 18.8749 11.5417 18.8749 12C18.8749 13.2461 18.5669 14.3955 17.951 15.4482C17.3352 16.501 16.5009 17.3353 15.4481 17.9512C14.3954 18.5671 13.246 18.875 11.9999 18.875C10.7538 18.875 9.60437 18.5671 8.55164 17.9512C7.4989 17.3353 6.66459 16.501 6.04871 15.4482C5.43282 14.3955 5.12488 13.2461 5.12488 12C5.12488 11.5417 5.16785 11.0833 5.25378 10.625H0.999878Z" fill="white"/>
</svg>
