<svg width="24" height="24" viewBox="0 0 24 24" fill="none" xmlns="http://www.w3.org/2000/svg">
<path d="M21.6 8.8474V17.3998C21.6 18.1955 21.284 18.9585 20.7213 19.5211C20.1587 20.0837 19.3957 20.3998 18.6 20.3998H5.40002C4.60437 20.3998 3.84131 20.0837 3.2787 19.5211C2.71609 18.9585 2.40002 18.1955 2.40002 17.3998V8.8474L11.6952 14.317C11.7876 14.3715 11.8928 14.4002 12 14.4002C12.1072 14.4002 12.2125 14.3715 12.3048 14.317L21.6 8.8474ZM18.6 4.7998C19.3382 4.79969 20.0505 5.07173 20.6007 5.56389C21.1508 6.05605 21.5002 6.73377 21.582 7.4674L12 13.1038L2.41802 7.4674C2.49981 6.73377 2.84921 6.05605 3.39938 5.56389C3.94954 5.07173 4.66185 4.79969 5.40002 4.7998H18.6Z" fill="white"/>
</svg>
