<svg width="24" height="24" viewBox="0 0 24 24" fill="none" xmlns="http://www.w3.org/2000/svg">
<path d="M19.0714 3H4.92857C3.86344 3 3 3.86344 3 4.92857V19.0714C3 20.1366 3.86344 21 4.92857 21H19.0714C20.1366 21 21 20.1366 21 19.0714V4.92857C21 3.86344 20.1366 3 19.0714 3ZM6.77679 18.4286C6.49421 18.4286 6.25217 18.2328 6.18954 17.9614L5.58694 15.3498C5.55516 15.2121 5.57278 15.0676 5.63673 14.9416C5.70068 14.8156 5.80688 14.716 5.93677 14.6603L8.74919 13.455C8.86933 13.4035 9.00295 13.3925 9.12991 13.4236C9.25686 13.4547 9.37027 13.5262 9.45304 13.6274L10.6985 15.1495C12.665 14.2269 14.2461 12.624 15.1495 10.6985L13.6273 9.45312C13.5261 9.37035 13.4546 9.25694 13.4235 9.12999C13.3924 9.00303 13.4035 8.86941 13.4549 8.74927L14.6603 5.93685C14.716 5.80696 14.8155 5.70076 14.9415 5.63681C15.0676 5.57287 15.2121 5.55524 15.3498 5.58702L17.9614 6.18962C18.0942 6.22023 18.2127 6.29496 18.2975 6.4016C18.3824 6.50825 18.4286 6.6405 18.4286 6.77679C18.4286 13.2171 13.2076 18.4286 6.77679 18.4286Z" fill="white"/>
</svg>
