<svg width="21" height="22" viewBox="0 0 21 22" fill="none" xmlns="http://www.w3.org/2000/svg">
<path d="M17.3531 14.9999C16.9041 15.0016 16.4601 15.094 16.0477 15.2716C15.6352 15.4492 15.263 15.7082 14.9531 16.0333L6.82647 11.9666C7.02638 11.3604 7.02638 10.7061 6.82647 10.0999L14.9665 5.95992C15.5495 6.57434 16.3402 6.95002 17.1848 7.01396C18.0294 7.07789 18.8676 6.8255 19.5365 6.30585C20.2054 5.78619 20.6572 5.0364 20.8041 4.2022C20.9509 3.368 20.7824 2.50899 20.3312 1.79214C19.88 1.07529 19.1784 0.551799 18.3627 0.323427C17.5471 0.0950557 16.6756 0.178114 15.9178 0.55646C15.16 0.934805 14.5699 1.58141 14.2622 2.37059C13.9546 3.15977 13.9513 4.03515 14.2531 4.82658L6.19314 8.92659C5.75783 8.39422 5.16853 8.00951 4.50601 7.8252C3.84349 7.64089 3.14018 7.66601 2.49249 7.89709C1.8448 8.12818 1.28444 8.55394 0.888212 9.116C0.491987 9.67806 0.279297 10.3489 0.279297 11.0366C0.279297 11.7243 0.491987 12.3951 0.888212 12.9572C1.28444 13.5192 1.8448 13.945 2.49249 14.1761C3.14018 14.4072 3.84349 14.4323 4.50601 14.248C5.16853 14.0637 5.75783 13.679 6.19314 13.1466L14.2331 17.1933C14.0973 17.558 14.0273 17.944 14.0265 18.3333C14.0265 18.9925 14.222 19.637 14.5882 20.1852C14.9545 20.7333 15.4751 21.1606 16.0842 21.4128C16.6933 21.6651 17.3635 21.7312 18.0101 21.6025C18.6567 21.4739 19.2507 21.1564 19.7168 20.6903C20.183 20.2241 20.5005 19.6302 20.6291 18.9836C20.7577 18.3369 20.6917 17.6667 20.4394 17.0576C20.1871 16.4486 19.7599 15.928 19.2117 15.5617C18.6635 15.1954 18.0191 14.9999 17.3598 14.9999H17.3531Z" fill="white"/>
</svg>
