<svg width="24" height="24" viewBox="0 0 24 24" fill="none" xmlns="http://www.w3.org/2000/svg">
<path fill-rule="evenodd" clip-rule="evenodd" d="M4 1C2.34315 1 1 2.34315 1 4V20C1 21.6569 2.34315 23 4 23H20C21.6569 23 23 21.6569 23 20V4C23 2.34315 21.6569 1 20 1H4ZM3.7938 11.208L18.8525 5.09863C19.5396 4.77158 20.2038 5.27288 19.9414 6.38002L17.3772 19.0939C17.198 19.9982 16.6808 20.2126 15.9605 19.7953L12.0544 16.7598L10.1766 18.681C10.1695 18.6881 10.1626 18.6952 10.1557 18.7023C9.94617 18.9154 9.77252 19.0921 9.39432 19.0921L9.66101 14.8994L9.65931 14.8985H9.66101L16.9084 8.01706C17.226 7.72039 16.8396 7.57473 16.4166 7.84549L7.47142 13.7833L3.60524 12.5144C2.77204 12.2455 2.7661 11.6423 3.7938 11.208Z" fill="white"/>
</svg>
