<svg width="24" height="24" viewBox="0 0 24 24" fill="none" xmlns="http://www.w3.org/2000/svg">
<path d="M22.9998 20.5556V3.44444C22.9998 2.1 21.8961 1 20.5492 1H3.45031C2.04476 1 0.999756 2.04256 0.999756 3.44444V20.5556C0.999756 21.9587 2.04476 23 3.45031 23H20.5492C21.1978 22.999 21.8196 22.7414 22.2788 22.2833C22.738 21.8253 22.9972 21.2041 22.9998 20.5556ZM18.3358 13.9641C18.3358 13.9641 19.7193 15.3293 20.0603 15.9624C20.0701 15.9759 20.0738 15.9881 20.0774 15.993C20.2155 16.2252 20.251 16.4086 20.1813 16.543C20.0664 16.7667 19.6753 16.8791 19.5421 16.8889H17.0989C16.9278 16.8889 16.5733 16.8449 16.1431 16.5479C15.8131 16.3181 15.4868 15.938 15.169 15.5677C14.6948 15.0177 14.2841 14.541 13.871 14.541C13.8186 14.5409 13.7665 14.5496 13.717 14.5667C13.4029 14.6669 13.0044 15.113 13.0044 16.3047C13.0044 16.6774 12.7111 16.8901 12.5033 16.8901H11.3838C11.0024 16.8901 9.01631 16.7569 7.25753 14.9003C5.09909 12.627 3.16064 8.06689 3.14353 8.02656C3.02131 7.732 3.27431 7.57189 3.54931 7.57189H6.0182C6.34942 7.57189 6.45576 7.77233 6.53153 7.952C6.61709 8.15611 6.93976 8.97989 7.46776 9.90633C8.32698 11.4133 8.8562 12.0269 9.27787 12.0269C9.35671 12.0264 9.43413 12.0058 9.50276 11.967C10.054 11.6627 9.95131 9.69733 9.92687 9.29156C9.92687 9.21456 9.92564 8.41278 9.64453 8.02778C9.44164 7.74911 9.0982 7.64278 8.89042 7.60244C8.97515 7.4857 9.08664 7.39098 9.21553 7.32622C9.5932 7.138 10.274 7.11111 10.9511 7.11111H11.3275C12.0621 7.12089 12.2528 7.16856 12.518 7.23578C13.0545 7.36411 13.0655 7.71244 13.0179 8.898C13.0044 9.23533 12.9898 9.61789 12.9898 10.0664C12.9898 10.163 12.9861 10.2693 12.9861 10.3793C12.969 10.9856 12.9494 11.6712 13.3772 11.9523C13.4326 11.987 13.4964 12.0056 13.5618 12.0061C13.7109 12.0061 14.157 12.0061 15.3658 9.932C15.8974 9.01655 16.3069 7.93611 16.335 7.85544C16.3777 7.76823 16.4395 7.69177 16.5159 7.63178C16.5785 7.59926 16.6482 7.58288 16.7188 7.58411H19.6215C19.9393 7.58411 20.1544 7.63178 20.1948 7.75278C20.2644 7.94711 20.1813 8.53989 18.8552 10.3317L18.2649 11.1139C17.0622 12.6881 17.0622 12.7688 18.3358 13.9641Z" fill="white"/>
</svg>
