<svg width="24" height="24" viewBox="0 0 24 24" fill="none" xmlns="http://www.w3.org/2000/svg">
<path d="M10.14 2.00586C10.847 2.00586 11.25 2.70986 11.25 3.41686V7.74986H10.355C10.1809 7.31959 9.86267 6.96326 9.45471 6.74192C9.04675 6.52058 8.57451 6.44803 8.11892 6.53669C7.66333 6.62534 7.25276 6.8697 6.95757 7.22787C6.66238 7.58604 6.50095 8.03572 6.50095 8.49986C6.50095 8.964 6.66238 9.41368 6.95757 9.77185C7.25276 10.13 7.66333 10.3744 8.11892 10.463C8.57451 10.5517 9.04675 10.4791 9.45471 10.2578C9.86267 10.0365 10.1809 9.68013 10.355 9.24986H11.25V20.1479C11.25 20.7439 10.998 21.3369 10.467 21.6079C9.9855 21.8601 9.45054 21.9931 8.907 21.9959C7.397 21.9959 6.274 21.2319 5.551 20.3279C5.05028 19.704 4.70113 18.9725 4.531 18.1909C4.06402 18.0531 3.63152 17.8179 3.262 17.5009C2.552 16.8899 2 15.9099 2 14.4659C2 13.7109 2.054 13.0529 2.19 12.4999H6.4C7.078 12.4999 7.64 12.9999 7.735 13.6509C7.30642 13.8282 6.95278 14.1489 6.73462 14.5582C6.51646 14.9675 6.44734 15.4399 6.53908 15.8946C6.63083 16.3492 6.87773 16.7578 7.23755 17.0505C7.59736 17.3432 8.04771 17.5017 8.51151 17.4989C8.97531 17.4961 9.42373 17.3323 9.78002 17.0353C10.1363 16.7384 10.3783 16.3268 10.4646 15.8711C10.5509 15.4154 10.4762 14.9439 10.2531 14.5372C10.0301 14.1305 9.67267 13.814 9.242 13.6419C9.18947 12.924 8.86725 12.2526 8.34007 11.7625C7.81289 11.2724 7.11979 11 6.4 10.9999H3.04C3.18975 10.8761 3.35644 10.7744 3.535 10.6979C3.43192 10.3304 3.37218 9.95218 3.357 9.57086C3.324 8.83586 3.434 8.07086 3.652 7.38986C3.868 6.71986 4.21 6.06686 4.69 5.61586C4.9911 5.32246 5.37257 5.12512 5.786 5.04886C5.985 4.20886 6.492 3.51486 7.139 3.01186C7.97 2.36386 9.059 2.00586 10.139 2.00586H10.14ZM12.75 16.9999H14.4C15.1559 16.9999 15.8808 16.6996 16.4153 16.1651C16.9497 15.6306 17.25 14.9057 17.25 14.1499V12.3549C17.6803 12.1808 18.0366 11.8625 18.2579 11.4546C18.4793 11.0466 18.5518 10.5744 18.4632 10.1188C18.3745 9.66318 18.1302 9.25261 17.772 8.95743C17.4138 8.66224 16.9641 8.50081 16.5 8.50081C16.0359 8.50081 15.5862 8.66224 15.228 8.95743C14.8698 9.25261 14.6255 9.66318 14.5368 10.1188C14.4482 10.5744 14.5207 11.0466 14.7421 11.4546C14.9634 11.8625 15.3197 12.1808 15.75 12.3549V14.1499C15.75 14.5079 15.6078 14.8513 15.3546 15.1045C15.1014 15.3576 14.758 15.4999 14.4 15.4999H12.75V8.50686V8.49986V3.41686C12.75 2.70986 13.153 2.00586 13.86 2.00586C14.942 2.00586 16.03 2.36386 16.861 3.01186C17.508 3.51486 18.015 4.20986 18.214 5.04886C18.634 5.11886 19.008 5.33286 19.31 5.61586C19.79 6.06686 20.132 6.71886 20.348 7.38986C20.566 8.07086 20.676 8.83586 20.643 9.57086C20.626 9.94686 20.571 10.3309 20.465 10.6979L20.531 10.7279C20.901 10.9019 21.201 11.1749 21.425 11.5379C21.85 12.2229 22 13.2089 22 14.4659C22 15.9109 21.448 16.8919 20.738 17.5009C20.3682 17.818 19.9353 18.0532 19.468 18.1909C19.2981 18.9724 18.9493 19.7039 18.449 20.3279C17.726 21.2319 16.603 21.9959 15.092 21.9959C14.5485 21.9934 14.0136 21.8607 13.532 21.6089C13.002 21.3369 12.75 20.7439 12.75 20.1479V16.9999ZM8 8.49986C8 8.36725 8.05268 8.24007 8.14645 8.14631C8.24021 8.05254 8.36739 7.99986 8.5 7.99986C8.63261 7.99986 8.75979 8.05254 8.85355 8.14631C8.94732 8.24007 9 8.36725 9 8.49986C9 8.63247 8.94732 8.75964 8.85355 8.85341C8.75979 8.94718 8.63261 8.99986 8.5 8.99986C8.36739 8.99986 8.24021 8.94718 8.14645 8.85341C8.05268 8.75964 8 8.63247 8 8.49986ZM8.5 14.9999C8.36739 14.9999 8.24021 15.0525 8.14645 15.1463C8.05268 15.2401 8 15.3673 8 15.4999C8 15.6325 8.05268 15.7596 8.14645 15.8534C8.24021 15.9472 8.36739 15.9999 8.5 15.9999C8.63261 15.9999 8.75979 15.9472 8.85355 15.8534C8.94732 15.7596 9 15.6325 9 15.4999C9 15.3673 8.94732 15.2401 8.85355 15.1463C8.75979 15.0525 8.63261 14.9999 8.5 14.9999ZM16 10.4999C16 10.6325 16.0527 10.7596 16.1464 10.8534C16.2402 10.9472 16.3674 10.9999 16.5 10.9999C16.6326 10.9999 16.7598 10.9472 16.8536 10.8534C16.9473 10.7596 17 10.6325 17 10.4999C17 10.3673 16.9473 10.2401 16.8536 10.1463C16.7598 10.0525 16.6326 9.99986 16.5 9.99986C16.3674 9.99986 16.2402 10.0525 16.1464 10.1463C16.0527 10.2401 16 10.3673 16 10.4999Z" fill="#009FAC"/>
</svg>
