<svg width="24" height="24" viewBox="0 0 24 24" fill="none" xmlns="http://www.w3.org/2000/svg">
<path d="M13 19.3579V21.3579C13 21.6231 12.8946 21.8775 12.7071 22.065C12.5196 22.2526 12.2652 22.3579 12 22.3579C11.7348 22.3579 11.4804 22.2526 11.2929 22.065C11.1054 21.8775 11 21.6231 11 21.3579V19.3579H9V21.3579C9 21.6231 8.89464 21.8775 8.70711 22.065C8.51957 22.2526 8.26522 22.3579 8 22.3579C7.73478 22.3579 7.48043 22.2526 7.29289 22.065C7.10536 21.8775 7 21.6231 7 21.3579V19.3579C7 19.3009 7.005 19.2459 7.014 19.1919C6.58681 19.0427 6.19878 18.7991 5.87881 18.4791C5.55885 18.1591 5.3152 17.7711 5.166 17.3439C5.11121 17.3536 5.05564 17.3583 5 17.3579H3C2.73478 17.3579 2.48043 17.2526 2.29289 17.065C2.10536 16.8775 2 16.6231 2 16.3579C2 16.0927 2.10536 15.8383 2.29289 15.6508C2.48043 15.4633 2.73478 15.3579 3 15.3579H5V13.3579H3C2.73478 13.3579 2.48043 13.2526 2.29289 13.065C2.10536 12.8775 2 12.6231 2 12.3579C2 12.0927 2.10536 11.8383 2.29289 11.6508C2.48043 11.4633 2.73478 11.3579 3 11.3579H5V9.35791H3C2.73478 9.35791 2.48043 9.25255 2.29289 9.06502C2.10536 8.87748 2 8.62313 2 8.35791C2 8.09269 2.10536 7.83834 2.29289 7.6508C2.48043 7.46327 2.73478 7.35791 3 7.35791H5C5.057 7.35791 5.112 7.36291 5.166 7.37191C5.466 6.50791 6.15 5.82391 7.014 5.52391C7.00476 5.46906 7.00007 5.41353 7 5.35791V3.35791C7 3.09269 7.10536 2.83834 7.29289 2.6508C7.48043 2.46327 7.73478 2.35791 8 2.35791C8.26522 2.35791 8.51957 2.46327 8.70711 2.6508C8.89464 2.83834 9 3.09269 9 3.35791V5.35791H11V3.35791C11 3.09269 11.1054 2.83834 11.2929 2.6508C11.4804 2.46327 11.7348 2.35791 12 2.35791C12.2652 2.35791 12.5196 2.46327 12.7071 2.6508C12.8946 2.83834 13 3.09269 13 3.35791V5.35791H15V3.35791C15 3.09269 15.1054 2.83834 15.2929 2.6508C15.4804 2.46327 15.7348 2.35791 16 2.35791C16.2652 2.35791 16.5196 2.46327 16.7071 2.6508C16.8946 2.83834 17 3.09269 17 3.35791V5.35791C17 5.41391 16.995 5.46991 16.986 5.52391C17.85 5.82391 18.534 6.50791 18.834 7.37191C18.8888 7.36221 18.9444 7.35752 19 7.35791H21C21.2652 7.35791 21.5196 7.46327 21.7071 7.6508C21.8946 7.83834 22 8.09269 22 8.35791C22 8.62313 21.8946 8.87748 21.7071 9.06502C21.5196 9.25255 21.2652 9.35791 21 9.35791H19V11.3579H21C21.2652 11.3579 21.5196 11.4633 21.7071 11.6508C21.8946 11.8383 22 12.0927 22 12.3579C22 12.6231 21.8946 12.8775 21.7071 13.065C21.5196 13.2526 21.2652 13.3579 21 13.3579H19V15.3579H21C21.2652 15.3579 21.5196 15.4633 21.7071 15.6508C21.8946 15.8383 22 16.0927 22 16.3579C22 16.6231 21.8946 16.8775 21.7071 17.065C21.5196 17.2526 21.2652 17.3579 21 17.3579H19C18.943 17.3579 18.888 17.3529 18.834 17.3439C18.6848 17.7711 18.4411 18.1591 18.1212 18.4791C17.8012 18.7991 17.4132 19.0427 16.986 19.1919C16.996 19.2459 17 19.3019 17 19.3579V21.3579C17 21.6231 16.8946 21.8775 16.7071 22.065C16.5196 22.2526 16.2652 22.3579 16 22.3579C15.7348 22.3579 15.4804 22.2526 15.2929 22.065C15.1054 21.8775 15 21.6231 15 21.3579V19.3579H13ZM10 9.35791C9.73478 9.35791 9.48043 9.46327 9.29289 9.6508C9.10536 9.83834 9 10.0927 9 10.3579V14.3579C9 14.6231 9.10536 14.8775 9.29289 15.065C9.48043 15.2526 9.73478 15.3579 10 15.3579H14C14.2652 15.3579 14.5196 15.2526 14.7071 15.065C14.8946 14.8775 15 14.6231 15 14.3579V10.3579C15 10.0927 14.8946 9.83834 14.7071 9.6508C14.5196 9.46327 14.2652 9.35791 14 9.35791H10Z" fill="#009FAC"/>
</svg>
