<svg width="24" height="24" viewBox="0 0 24 24" fill="none" xmlns="http://www.w3.org/2000/svg">
<path d="M15.442 0.717773C14.7581 0.718038 14.1023 0.989839 13.6187 1.47344C13.1351 1.95704 12.8633 2.61286 12.863 3.29677C12.8635 3.76435 12.991 4.22301 13.232 4.62372C13.4729 5.02443 13.8182 5.35212 14.231 5.57177L12.809 8.26977C12.4612 8.15659 12.0978 8.09856 11.732 8.09777C10.8024 8.09777 9.91091 8.46705 9.25359 9.12436C8.59628 9.78168 8.227 10.6732 8.227 11.6028C8.22861 11.8534 8.25711 12.1032 8.312 12.3478L5.482 13.3838C5.21482 12.9585 4.84416 12.6079 4.40467 12.3648C3.96519 12.1218 3.47123 11.9941 2.969 11.9938C2.18183 11.994 1.42696 12.3068 0.870246 12.8633C0.313537 13.4198 0.000530038 14.1746 0 14.9618C0 15.7495 0.31291 16.5049 0.869893 17.0619C1.42688 17.6189 2.18231 17.9318 2.97 17.9318C3.75752 17.9315 4.51269 17.6185 5.06946 17.0615C5.62623 16.5046 5.939 15.7493 5.939 14.9618C5.93784 14.7485 5.9137 14.5359 5.867 14.3278L8.583 13.1348C8.87041 13.7257 9.31815 14.2239 9.87512 14.5726C10.4321 14.9213 11.0759 15.1064 11.733 15.1068C12.5029 15.1058 13.2511 14.8514 13.862 14.3828L16.138 16.5498C15.6501 17.2648 15.3891 18.1102 15.389 18.9758C15.389 19.5412 15.5004 20.1011 15.7168 20.6235C15.9332 21.1458 16.2504 21.6205 16.6503 22.0202C17.0501 22.42 17.5248 22.7371 18.0472 22.9534C18.5697 23.1696 19.1296 23.2809 19.695 23.2808C20.8366 23.2808 21.9314 22.8273 22.7387 22.0202C23.5461 21.2131 23.9997 20.1184 24 18.9768C24 17.835 23.5464 16.74 22.7391 15.9327C21.9317 15.1253 20.8368 14.6718 19.695 14.6718C18.7045 14.6725 17.7445 15.0147 16.977 15.6408L14.553 13.6768C14.9961 13.0759 15.2357 12.3493 15.237 11.6028C15.2371 11.0338 15.0987 10.4733 14.8337 9.9698C14.5687 9.46628 14.1851 9.03485 13.716 8.71277L14.92 5.82177C15.0917 5.85747 15.2666 5.87556 15.442 5.87577C16.1263 5.87577 16.7825 5.60395 17.2663 5.12011C17.7502 4.63627 18.022 3.98003 18.022 3.29577C18.0215 2.61186 17.7494 1.95614 17.2656 1.47273C16.7818 0.989319 16.1259 0.717773 15.442 0.717773Z" fill="#009FAC"/>
</svg>
