<svg width="24" height="24" viewBox="0 0 24 24" fill="none" xmlns="http://www.w3.org/2000/svg">
<path d="M5.72874 18.3443L3.20274 22.2443L3.47154 23.5199L4.74354 23.2475L7.26834 19.3499C6.72541 19.0626 6.21004 18.7259 5.72874 18.3443ZM16.4231 16.9823C16.4399 16.9475 16.4507 16.9091 16.4663 16.8719C16.5299 16.7315 16.5863 16.5911 16.6319 16.4435C16.6391 16.4171 16.6427 16.3907 16.6511 16.3667C16.698 16.2054 16.7372 16.042 16.7687 15.8771V15.8519C17.0027 14.4491 16.5947 12.8843 15.6611 11.4707L16.9931 9.41387C18.5279 9.60947 19.8551 9.22307 20.4935 8.23547C21.6011 6.52787 20.2535 3.68507 17.4875 1.88387C14.7191 0.0814677 11.5799 0.00586757 10.4747 1.71107C9.83395 2.69987 10.0211 4.07147 10.8263 5.39867L9.49194 7.45547C7.82514 7.17587 6.23274 7.43627 5.04834 8.22347C5.04114 8.22587 5.03275 8.22827 5.02794 8.23307C4.88956 8.32715 4.75655 8.42891 4.62954 8.53787C4.60914 8.55467 4.58514 8.57027 4.56834 8.58707C4.45314 8.68887 4.34452 8.79789 4.24314 8.91347C4.21914 8.94227 4.18554 8.96747 4.16274 8.99747C4.03494 9.14221 3.91859 9.29667 3.81474 9.45947C2.15394 12.0191 3.57114 15.8927 6.97434 18.1103C10.3799 20.3279 14.4863 20.0471 16.1435 17.4875C16.2479 17.3255 16.3439 17.1563 16.4231 16.9823ZM15.4451 5.03267C14.3807 4.34027 13.8611 3.24827 14.2871 2.58947C14.7119 1.93307 15.9203 1.96307 16.9823 2.65547C18.0491 3.34787 18.5639 4.44227 18.1403 5.09867C17.7167 5.75507 16.5107 5.72507 15.4451 5.03267Z" fill="#009FAC"/>
</svg>
