<svg width="24" height="24" viewBox="0 0 24 24" fill="none" xmlns="http://www.w3.org/2000/svg">
<path d="M16.24 11.5099L17.81 9.93987L14.06 6.18987L12.49 7.75987L8.35 3.62987C7.57 2.84987 6.3 2.84987 5.52 3.62987L3.62 5.52987C2.84 6.30987 2.84 7.57987 3.62 8.35987L7.75 12.4899L3 17.2499V20.9999H6.75L11.51 16.2399L15.64 20.3699C16.59 21.3199 17.87 20.9699 18.47 20.3699L20.37 18.4699C21.15 17.6899 21.15 16.4199 20.37 15.6399L16.24 11.5099ZM9.18 11.0699L5.04 6.93987L6.93 5.03987L8.2 6.30987L7.02 7.49987L8.43 8.90987L9.62 7.71987L11.07 9.16987L9.18 11.0699ZM17.06 18.9599L12.93 14.8299L14.83 12.9299L16.28 14.3799L15.09 15.5699L16.5 16.9799L17.69 15.7899L18.96 17.0599L17.06 18.9599ZM20.71 7.03987C20.8027 6.94735 20.8762 6.83747 20.9264 6.71649C20.9766 6.59552 21.0024 6.46584 21.0024 6.33487C21.0024 6.2039 20.9766 6.07422 20.9264 5.95324C20.8762 5.83227 20.8027 5.72238 20.71 5.62987L18.37 3.28987C17.9 2.81987 17.25 2.99987 16.96 3.28987L15.13 5.11987L18.88 8.86987L20.71 7.03987Z" fill="#009FAC"/>
</svg>
