<svg width="24" height="24" viewBox="0 0 24 24" fill="none" xmlns="http://www.w3.org/2000/svg">
<path d="M18.3533 16.0002C17.9042 16.0019 17.4602 16.0943 17.0478 16.2719C16.6354 16.4494 16.2631 16.7085 15.9533 17.0335L7.82659 12.9668C8.0265 12.3607 8.0265 11.7063 7.82659 11.1002L15.9666 6.96016C16.5496 7.57458 17.3403 7.95027 18.1849 8.0142C19.0295 8.07813 19.8678 7.82574 20.5366 7.30609C21.2055 6.78644 21.6573 6.03664 21.8042 5.20244C21.9511 4.36825 21.7825 3.50924 21.3313 2.79238C20.8801 2.07553 20.1785 1.55204 19.3628 1.32367C18.5472 1.0953 17.6757 1.17836 16.9179 1.5567C16.1601 1.93505 15.57 2.58165 15.2623 3.37083C14.9547 4.16001 14.9514 5.03539 15.2533 5.82683L7.19326 9.92683C6.75796 9.39446 6.16865 9.00975 5.50613 8.82545C4.84361 8.64114 4.1403 8.66625 3.49261 8.89734C2.84492 9.12843 2.28456 9.55418 1.88833 10.1162C1.49211 10.6783 1.27942 11.3491 1.27942 12.0368C1.27942 12.7245 1.49211 13.3954 1.88833 13.9574C2.28456 14.5195 2.84492 14.9452 3.49261 15.1763C4.1403 15.4074 4.84361 15.4325 5.50613 15.2482C6.16865 15.0639 6.75796 14.6792 7.19326 14.1468L15.2333 18.1935C15.0974 18.5583 15.0274 18.9443 15.0266 19.3335C15.0266 19.9928 15.2221 20.6372 15.5884 21.1854C15.9546 21.7336 16.4752 22.1608 17.0843 22.4131C17.6934 22.6654 18.3636 22.7314 19.0102 22.6028C19.6568 22.4742 20.2508 22.1567 20.7169 21.6905C21.1831 21.2243 21.5006 20.6304 21.6292 19.9838C21.7578 19.3372 21.6918 18.667 21.4395 18.0579C21.1872 17.4488 20.76 16.9282 20.2118 16.5619C19.6637 16.1957 19.0192 16.0002 18.3599 16.0002H18.3533Z" fill="#FFF"/>
</svg>
