<svg width="20" height="20" viewBox="0 0 20 20" fill="none" xmlns="http://www.w3.org/2000/svg">
<path d="M8.19259 0.285706C8.87939 0.285706 9.27087 0.969933 9.27087 1.65708V5.86838H8.40144C8.23236 5.4502 7.92318 5.10387 7.52687 4.88875C7.13057 4.67363 6.67182 4.60311 6.22925 4.68928C5.78667 4.77545 5.38783 5.01294 5.10108 5.36105C4.81432 5.70916 4.65751 6.14622 4.65751 6.59732C4.65751 7.04842 4.81432 7.48548 5.10108 7.83359C5.38783 8.1817 5.78667 8.41919 6.22925 8.50536C6.67182 8.59152 7.13057 8.52101 7.52687 8.30588C7.92318 8.09076 8.23236 7.74444 8.40144 7.32626H9.27087V17.9182C9.27087 18.4974 9.02607 19.0738 8.51024 19.3372C8.0425 19.5823 7.52283 19.7116 6.99481 19.7143C5.52796 19.7143 4.43704 18.9717 3.7347 18.0931C3.24829 17.4868 2.90911 16.7758 2.74384 16.0161C2.2902 15.8822 1.87006 15.6537 1.5111 15.3455C0.821385 14.7517 0.285156 13.7992 0.285156 12.3958C0.285156 11.662 0.337613 11.0224 0.469728 10.485H4.55944C5.21807 10.485 5.76401 10.9709 5.8563 11.6037C5.43996 11.776 5.09643 12.0877 4.8845 12.4855C4.67258 12.8833 4.60543 13.3425 4.69455 13.7843C4.78367 14.2262 5.02353 14.6234 5.37306 14.9078C5.72259 15.1923 6.16007 15.3463 6.61062 15.3436C7.06117 15.3409 7.49678 15.1817 7.84289 14.8931C8.18901 14.6045 8.4241 14.2045 8.50794 13.7616C8.59178 13.3186 8.51916 12.8603 8.3025 12.4651C8.08583 12.0699 7.73861 11.7622 7.32024 11.5949C7.26921 10.8972 6.9562 10.2446 6.44408 9.76832C5.93196 9.29201 5.25867 9.0272 4.55944 9.02711H1.29544C1.44091 8.90681 1.60284 8.80797 1.7763 8.73359C1.67616 8.37647 1.61813 8.00885 1.60339 7.63824C1.57133 6.92388 1.67818 6.18037 1.88996 5.51849C2.09979 4.86731 2.43201 4.23265 2.8983 3.79432C3.1908 3.50916 3.56136 3.31736 3.96299 3.24324C4.1563 2.42683 4.64881 1.75232 5.27733 1.26345C6.08459 0.633651 7.14247 0.285706 8.19161 0.285706H8.19259ZM10.728 14.8586H12.3309C13.0651 14.8586 13.7693 14.5668 14.2885 14.0473C14.8078 13.5278 15.0994 12.8233 15.0994 12.0886V10.344C15.5174 10.1749 15.8636 9.86555 16.0786 9.46904C16.2936 9.07254 16.3641 8.61356 16.278 8.17077C16.1918 7.72797 15.9545 7.32893 15.6065 7.04203C15.2586 6.75514 14.8217 6.59824 14.3709 6.59824C13.92 6.59824 13.4832 6.75514 13.1352 7.04203C12.7873 7.32893 12.5499 7.72797 12.4638 8.17077C12.3777 8.61356 12.4481 9.07254 12.6632 9.46904C12.8782 9.86555 13.2243 10.1749 13.6423 10.344V12.0886C13.6423 12.4366 13.5041 12.7704 13.2582 13.0164C13.0123 13.2625 12.6787 13.4007 12.3309 13.4007H10.728V6.60412V6.59732V1.65708C10.728 0.969933 11.1195 0.285706 11.8063 0.285706C12.8574 0.285706 13.9143 0.633651 14.7216 1.26345C15.3501 1.75232 15.8426 2.42781 16.0359 3.24324C16.4439 3.31128 16.8072 3.51927 17.1006 3.79432C17.5669 4.23265 17.8991 4.86634 18.1089 5.51849C18.3207 6.18037 18.4276 6.92388 18.3955 7.63824C18.379 8.00368 18.3256 8.37689 18.2226 8.73359L18.2867 8.76275C18.6461 8.93186 18.9376 9.19719 19.1552 9.55C19.568 10.2158 19.7137 11.1741 19.7137 12.3958C19.7137 13.8002 19.1775 14.7536 18.4878 15.3455C18.1285 15.6538 17.7081 15.8823 17.2541 16.0161C17.0891 16.7757 16.7502 17.4867 16.2642 18.0931C15.5618 18.9717 14.4709 19.7143 13.0031 19.7143C12.4752 19.7119 11.9555 19.5829 11.4877 19.3381C10.9728 19.0738 10.728 18.4974 10.728 17.9182V14.8586V14.8586ZM6.11373 6.59732C6.11373 6.46844 6.1649 6.34483 6.25599 6.2537C6.34708 6.16256 6.47062 6.11136 6.59944 6.11136C6.72826 6.11136 6.85181 6.16256 6.9429 6.2537C7.03398 6.34483 7.08516 6.46844 7.08516 6.59732C7.08516 6.7262 7.03398 6.84981 6.9429 6.94094C6.85181 7.03208 6.72826 7.08328 6.59944 7.08328C6.47062 7.08328 6.34708 7.03208 6.25599 6.94094C6.1649 6.84981 6.11373 6.7262 6.11373 6.59732ZM6.59944 12.9148C6.47062 12.9148 6.34708 12.966 6.25599 13.0571C6.1649 13.1482 6.11373 13.2718 6.11373 13.4007C6.11373 13.5296 6.1649 13.6532 6.25599 13.7443C6.34708 13.8355 6.47062 13.8867 6.59944 13.8867C6.72826 13.8867 6.85181 13.8355 6.9429 13.7443C7.03398 13.6532 7.08516 13.5296 7.08516 13.4007C7.08516 13.2718 7.03398 13.1482 6.9429 13.0571C6.85181 12.966 6.72826 12.9148 6.59944 12.9148ZM13.8852 8.54115C13.8852 8.67003 13.9363 8.79364 14.0274 8.88477C14.1185 8.97591 14.2421 9.02711 14.3709 9.02711C14.4997 9.02711 14.6232 8.97591 14.7143 8.88477C14.8054 8.79364 14.8566 8.67003 14.8566 8.54115C14.8566 8.41226 14.8054 8.28866 14.7143 8.19752C14.6232 8.10639 14.4997 8.05519 14.3709 8.05519C14.2421 8.05519 14.1185 8.10639 14.0274 8.19752C13.9363 8.28866 13.8852 8.41226 13.8852 8.54115V8.54115Z" fill="#009FAC"/>
</svg>
