<svg width="20" height="20" viewBox="0 0 20 20" fill="none" xmlns="http://www.w3.org/2000/svg">
<path d="M10.9709 16.8V18.7429C10.9709 19.0005 10.8685 19.2476 10.6863 19.4298C10.5042 19.6119 10.2571 19.7143 9.99944 19.7143C9.7418 19.7143 9.49472 19.6119 9.31254 19.4298C9.13036 19.2476 9.02801 19.0005 9.02801 18.7429V16.8H7.08516V18.7429C7.08516 19.0005 6.98281 19.2476 6.80063 19.4298C6.61845 19.6119 6.37137 19.7143 6.11373 19.7143C5.85609 19.7143 5.609 19.6119 5.42682 19.4298C5.24465 19.2476 5.1423 19.0005 5.1423 18.7429V16.8C5.1423 16.7446 5.14716 16.6912 5.1559 16.6387C4.74091 16.4938 4.36397 16.2571 4.05315 15.9463C3.74233 15.6355 3.50563 15.2585 3.3607 14.8435C3.30747 14.853 3.2535 14.8575 3.19944 14.8571H1.25658C0.998946 14.8571 0.751859 14.7548 0.569681 14.5726C0.387503 14.3904 0.285156 14.1433 0.285156 13.8857C0.285156 13.6281 0.387503 13.381 0.569681 13.1988C0.751859 13.0166 0.998946 12.9143 1.25658 12.9143H3.19944V10.9714H1.25658C0.998946 10.9714 0.751859 10.8691 0.569681 10.6869C0.387503 10.5047 0.285156 10.2576 0.285156 9.99999C0.285156 9.74235 0.387503 9.49527 0.569681 9.31309C0.751859 9.13091 0.998946 9.02856 1.25658 9.02856H3.19944V7.08571H1.25658C0.998946 7.08571 0.751859 6.98336 0.569681 6.80118C0.387503 6.619 0.285156 6.37192 0.285156 6.11428C0.285156 5.85664 0.387503 5.60955 0.569681 5.42737C0.751859 5.2452 0.998946 5.14285 1.25658 5.14285H3.19944C3.25481 5.14285 3.30824 5.14771 3.3607 5.15645C3.65213 4.31713 4.31659 3.65268 5.1559 3.36125C5.14692 3.30796 5.14237 3.25403 5.1423 3.19999V1.25713C5.1423 0.999495 5.24465 0.752409 5.42682 0.57023C5.609 0.388052 5.85609 0.285706 6.11373 0.285706C6.37137 0.285706 6.61845 0.388052 6.80063 0.57023C6.98281 0.752409 7.08516 0.999495 7.08516 1.25713V3.19999H9.02801V1.25713C9.02801 0.999495 9.13036 0.752409 9.31254 0.57023C9.49472 0.388052 9.7418 0.285706 9.99944 0.285706C10.2571 0.285706 10.5042 0.388052 10.6863 0.57023C10.8685 0.752409 10.9709 0.999495 10.9709 1.25713V3.19999H12.9137V1.25713C12.9137 0.999495 13.0161 0.752409 13.1983 0.57023C13.3804 0.388052 13.6275 0.285706 13.8852 0.285706C14.1428 0.285706 14.3899 0.388052 14.5721 0.57023C14.7542 0.752409 14.8566 0.999495 14.8566 1.25713V3.19999C14.8566 3.25439 14.8517 3.30879 14.843 3.36125C15.6823 3.65268 16.3468 4.31713 16.6382 5.15645C16.6914 5.14702 16.7454 5.14247 16.7994 5.14285H18.7423C18.9999 5.14285 19.247 5.2452 19.4292 5.42737C19.6114 5.60955 19.7137 5.85664 19.7137 6.11428C19.7137 6.37192 19.6114 6.619 19.4292 6.80118C19.247 6.98336 18.9999 7.08571 18.7423 7.08571H16.7994V9.02856H18.7423C18.9999 9.02856 19.247 9.13091 19.4292 9.31309C19.6114 9.49527 19.7137 9.74235 19.7137 9.99999C19.7137 10.2576 19.6114 10.5047 19.4292 10.6869C19.247 10.8691 18.9999 10.9714 18.7423 10.9714H16.7994V12.9143H18.7423C18.9999 12.9143 19.247 13.0166 19.4292 13.1988C19.6114 13.381 19.7137 13.6281 19.7137 13.8857C19.7137 14.1433 19.6114 14.3904 19.4292 14.5726C19.247 14.7548 18.9999 14.8571 18.7423 14.8571H16.7994C16.7441 14.8571 16.6906 14.8523 16.6382 14.8435C16.4933 15.2585 16.2566 15.6355 15.9457 15.9463C15.6349 16.2571 15.258 16.4938 14.843 16.6387C14.8527 16.6912 14.8566 16.7456 14.8566 16.8V18.7429C14.8566 19.0005 14.7542 19.2476 14.5721 19.4298C14.3899 19.6119 14.1428 19.7143 13.8852 19.7143C13.6275 19.7143 13.3804 19.6119 13.1983 19.4298C13.0161 19.2476 12.9137 19.0005 12.9137 18.7429V16.8H10.9709ZM8.05659 7.08571C7.79895 7.08571 7.55186 7.18805 7.36968 7.37023C7.1875 7.55241 7.08516 7.7995 7.08516 8.05714V11.9428C7.08516 12.2005 7.1875 12.4476 7.36968 12.6298C7.55186 12.8119 7.79895 12.9143 8.05659 12.9143H11.9423C12.1999 12.9143 12.447 12.8119 12.6292 12.6298C12.8114 12.4476 12.9137 12.2005 12.9137 11.9428V8.05714C12.9137 7.7995 12.8114 7.55241 12.6292 7.37023C12.447 7.18805 12.1999 7.08571 11.9423 7.08571H8.05659Z" fill="#009FAC"/>
</svg>
