<svg width="20" height="20" viewBox="0 0 20 20" fill="none" xmlns="http://www.w3.org/2000/svg">
<path d="M14.574 9.47047L16.2684 7.77576L12.2213 3.7279L10.5269 5.4226L6.05898 0.964551C5.21719 0.122594 3.84658 0.122594 3.00479 0.964551L0.954272 3.01547C0.112481 3.85743 0.112481 5.22831 0.954272 6.07026L5.41145 10.5283L0.285156 15.6664V19.7143H4.33223L9.46931 14.5762L13.9265 19.0342C14.9517 20.0597 16.3331 19.6819 16.9807 19.0342L19.0312 16.9833C19.873 16.1414 19.873 14.7705 19.0312 13.9285L14.574 9.47047V9.47047ZM6.95473 8.99552L2.48676 4.53747L4.52649 2.48655L5.89709 3.85743L4.62362 5.14195L6.14531 6.66395L7.42958 5.37943L8.99445 6.9446L6.95473 8.99552V8.99552ZM15.459 17.5122L11.0018 13.0542L13.0523 11.0033L14.6172 12.5684L13.3329 13.853L14.8546 15.375L16.1389 14.0904L17.5095 15.4613L15.459 17.5122V17.5122ZM19.3981 4.64541C19.4982 4.54555 19.5775 4.42693 19.6317 4.29635C19.6859 4.16577 19.7137 4.02578 19.7137 3.88441C19.7137 3.74304 19.6859 3.60306 19.6317 3.47248C19.5775 3.34189 19.4982 3.22328 19.3981 3.12341L16.8727 0.597544C16.3655 0.0902109 15.664 0.284509 15.351 0.597544L13.3761 2.5729L17.4231 6.62077L19.3981 4.64541V4.64541Z" fill="#009FAC"/>
</svg>
