<svg width="22" height="22" viewBox="0 0 22 22" fill="none" xmlns="http://www.w3.org/2000/svg">
<path d="M10.9997 0.571411C11.5233 0.571411 12.0254 0.788145 12.3956 1.17393C12.7658 1.55972 12.9737 2.08297 12.9737 2.62855C12.9737 3.3897 12.5789 4.05827 11.9867 4.40798V5.71427H12.9737C14.8062 5.71427 16.5635 6.47284 17.8592 7.8231C19.1549 9.17336 19.8828 11.0047 19.8828 12.9143H20.8699C21.1316 12.9143 21.3827 13.0226 21.5678 13.2155C21.7529 13.4084 21.8569 13.67 21.8569 13.9428V17.0286C21.8569 17.3013 21.7529 17.563 21.5678 17.7559C21.3827 17.9488 21.1316 18.0571 20.8699 18.0571H19.8828V19.0857C19.8828 19.6313 19.6749 20.1545 19.3047 20.5403C18.9345 20.9261 18.4324 21.1428 17.9088 21.1428H4.09063C3.56709 21.1428 3.06498 20.9261 2.69478 20.5403C2.32458 20.1545 2.1166 19.6313 2.1166 19.0857V18.0571H1.12959C0.867819 18.0571 0.616768 17.9488 0.431668 17.7559C0.246567 17.563 0.142578 17.3013 0.142578 17.0286V13.9428C0.142578 13.67 0.246567 13.4084 0.431668 13.2155C0.616768 13.0226 0.867819 12.9143 1.12959 12.9143H2.1166C2.1166 11.0047 2.84452 9.17336 4.14023 7.8231C5.43594 6.47284 7.19329 5.71427 9.0257 5.71427H10.0127V4.40798C9.4205 4.05827 9.0257 3.3897 9.0257 2.62855C9.0257 2.08297 9.23367 1.55972 9.60387 1.17393C9.97408 0.788145 10.4762 0.571411 10.9997 0.571411ZM6.55816 11.8857C5.90373 11.8857 5.27611 12.1566 4.81335 12.6389C4.3506 13.1211 4.09063 13.7751 4.09063 14.4571C4.09063 15.1391 4.3506 15.7932 4.81335 16.2754C5.27611 16.7576 5.90373 17.0286 6.55816 17.0286C7.21259 17.0286 7.84022 16.7576 8.30297 16.2754C8.76572 15.7932 9.0257 15.1391 9.0257 14.4571C9.0257 13.7751 8.76572 13.1211 8.30297 12.6389C7.84022 12.1566 7.21259 11.8857 6.55816 11.8857ZM15.4413 11.8857C14.7868 11.8857 14.1592 12.1566 13.6965 12.6389C13.2337 13.1211 12.9737 13.7751 12.9737 14.4571C12.9737 15.1391 13.2337 15.7932 13.6965 16.2754C14.1592 16.7576 14.7868 17.0286 15.4413 17.0286C16.0957 17.0286 16.7233 16.7576 17.1861 16.2754C17.6488 15.7932 17.9088 15.1391 17.9088 14.4571C17.9088 13.7751 17.6488 13.1211 17.1861 12.6389C16.7233 12.1566 16.0957 11.8857 15.4413 11.8857Z" fill="#009FAC"/>
</svg>
