<svg width="112" height="48" viewBox="0 0 112 48" fill="none" xmlns="http://www.w3.org/2000/svg">
<path fill-rule="evenodd" clip-rule="evenodd" d="M25.4589 0.581502C22.7146 4.38073 21.1707 8.23573 20.6581 12.5691C20.4593 14.2498 20.5677 17.909 20.8607 19.4075C21.5221 22.7891 22.9626 26.2348 24.8622 28.9789C25.8547 30.4126 25.8512 30.4114 26.491 29.5703C29.6105 25.4695 31.501 19.4272 31.255 14.343C31.0133 9.34735 29.3829 4.82104 26.2949 0.572227L25.8791 0L25.4589 0.581502ZM27.3431 4.82421C29.1979 8.39694 30.0428 11.815 30.0428 15.7464C30.0428 17.1618 29.7208 20.4613 29.5699 20.5931C29.5424 20.6171 29.4762 19.9071 29.4229 19.0153C29.2423 15.9889 28.7011 13.5115 27.669 10.983C27.0845 9.55152 26.0005 7.44798 25.847 7.44798C25.6924 7.44798 24.6659 9.45243 24.1286 10.804C23.0092 13.6193 22.5226 15.759 22.4081 18.3702C22.318 20.4221 22.2132 20.9571 22.0615 20.1397C22.0054 19.8377 21.8826 18.6508 21.7888 17.502C21.4953 13.9122 21.9876 10.6785 23.3527 7.23052C24.0101 5.56948 25.1673 3.23713 25.6594 2.58131L25.8771 2.29098L26.2933 2.94742C26.5223 3.3084 26.9947 4.15301 27.3431 4.82421ZM35.3574 22.9466V31.245H37.1057H38.8539V23.9839V16.7227H40.5322H42.2105V15.6854V14.6481H38.784H35.3574V22.9466ZM44.3084 14.8203C44.3084 14.915 43.9918 17.7294 43.6049 21.0747C42.7084 28.8252 42.4912 30.7666 42.4907 31.0315C42.4902 31.2233 42.6656 31.245 44.2194 31.245H45.9485L46.0421 29.9331C46.0935 29.2115 46.1737 28.2232 46.2203 27.7365L46.305 26.8517H47.1789H48.0528L48.1337 27.3704C48.1781 27.6556 48.2567 28.6442 48.3082 29.567L48.4021 31.245H50.1925H51.983L51.9173 30.8484C51.881 30.6302 51.4768 27.1568 51.019 23.1296C50.5611 19.1024 50.1481 15.5467 50.1013 15.2278L50.0163 14.6481H47.1623C44.7989 14.6481 44.3084 14.6776 44.3084 14.8203ZM55.6372 14.775C54.8789 14.9134 54.403 15.2046 54.0286 15.7592C53.7876 16.1162 53.7423 16.4398 53.7016 18.0956L53.6543 20.0177H55.4148H57.1754L57.1775 18.7058C57.1796 17.3295 57.3365 16.8188 57.78 16.7442C58.371 16.645 58.4341 16.8798 58.4341 19.1783C58.4341 21.8923 58.4629 21.8482 56.6859 21.8482H55.4971V22.7635V23.6788H56.5553C57.5691 23.6788 58.1057 23.8045 58.3271 24.0937C58.3836 24.1675 58.4308 25.274 58.432 26.5527C58.4343 29.0159 58.3954 29.1704 57.7733 29.1704C57.2922 29.1704 57.1754 28.7518 57.1754 27.0268V25.5093H55.4158H53.6563L53.7027 27.6755C53.7543 30.0793 53.8442 30.3729 54.6908 30.8998C55.1221 31.1683 55.288 31.1861 57.6887 31.222C60.0334 31.257 60.274 31.2404 60.7987 31.0068C61.1745 30.8395 61.4748 30.5782 61.684 30.2366C61.9818 29.7502 62.0029 29.5568 62.0404 26.9738C62.0756 24.5354 62.0521 24.1804 61.8306 23.8033C61.5146 23.2657 60.7661 22.8245 60.1699 22.8245C59.5101 22.8245 59.4538 22.6166 60.0886 22.523C60.8976 22.4037 61.4945 22.0282 61.7958 21.4491C62.0265 21.0057 62.0646 20.6407 62.0665 18.8584C62.0707 15.1377 61.7139 14.751 58.2243 14.6929C57.1474 14.6748 55.9832 14.7118 55.6372 14.775ZM64.5879 22.9466V31.245H66.4061H68.2242V23.9839V16.7227H68.8536H69.483V23.9839V31.245H71.2312H72.9794V22.9466V14.6481H68.7837H64.5879V22.9466ZM75.6018 14.7178C75.544 14.7689 75.4969 18.5085 75.4969 23.028V31.245H77.315H79.1332V28.4382V25.6314H80.5721C82.4375 25.6314 83.0863 25.3836 83.6087 24.472C83.9575 23.8632 83.9583 23.8537 83.9583 20.3228C83.9583 18.3763 83.9087 16.5795 83.8478 16.3296C83.7175 15.7937 83.1895 15.2086 82.5781 14.9227C82.2143 14.7526 81.5961 14.71 78.9234 14.6713C77.1542 14.6457 75.6595 14.6667 75.6018 14.7178ZM88.504 14.7743C87.678 14.9259 87.2443 15.2153 86.8604 15.8709L86.5457 16.4084V23.0076V29.6068L86.8604 30.1443C87.4351 31.1257 87.6124 31.1786 90.4665 31.2222C92.6984 31.2562 93.0356 31.2346 93.5828 31.0234C94.0683 30.8361 94.2665 30.6624 94.5319 30.1921L94.8673 29.5975V22.9466V16.2956L94.5508 15.7785C94.0287 14.926 93.4363 14.7406 91.0911 14.6961C90.0142 14.6756 88.85 14.7108 88.504 14.7743ZM97.4547 22.9436V31.245H99.2729H101.091L101.095 26.028C101.099 21.2118 101.181 20.1795 101.431 21.7872C101.483 22.1228 101.868 24.27 102.287 26.5587C102.706 28.8474 103.049 30.8382 103.049 30.9825C103.049 31.2345 103.108 31.245 104.515 31.245C105.921 31.245 105.984 31.2338 106.052 30.9704C106.149 30.5953 106.552 28.4068 107.259 24.411C107.586 22.5652 107.905 21.0028 107.968 20.9391C108.032 20.8754 108.084 23.1681 108.084 26.0341V31.245H109.902H111.72V22.9466V14.6481H109.421C108.156 14.6481 107.092 14.6894 107.057 14.7396C107.022 14.7899 106.7 16.259 106.342 18.0041C105.984 19.7492 105.541 21.891 105.358 22.7635C105.175 23.6361 104.946 24.7756 104.849 25.2958C104.752 25.8159 104.632 26.2415 104.583 26.2415C104.533 26.2415 104.413 25.8435 104.317 25.3568C104.22 24.8701 103.994 23.7581 103.814 22.8855C103.635 22.013 103.261 20.1733 102.982 18.7973C102.704 17.4214 102.399 15.9386 102.303 15.5024L102.13 14.7091L99.7922 14.6757L97.4547 14.6423V22.9436ZM17.1059 14.8987C8.46289 15.673 1.60478 21.3014 0.17724 28.7921C-0.110869 30.3034 -0.0367448 33.4497 0.319895 34.8451C2.04855 41.6106 7.97688 46.5786 15.7772 47.7984C17.5151 48.0701 20.4436 48.0667 22.2107 47.7909C25.7865 47.2327 29.2365 45.7507 31.7748 43.6823L32.84 42.8143V37.1517V31.4891H25.917H18.994V34.0054V36.5215L19.4859 36.1942C22.1069 34.4497 25.9581 35.1658 27.4961 37.6835C28.7613 39.7547 28.2846 41.8456 26.151 43.5843C24.2759 45.1123 21.626 46.0122 19.0066 46.0105C10.5973 46.0052 5.47718 38.0988 9.78357 31.7687C10.4612 30.7727 11.8907 29.4917 13.0932 28.8028C14.2666 28.1308 16.0246 27.5311 17.1758 27.4104C17.5989 27.366 18.1826 27.2995 18.473 27.2625L19.001 27.1954L18.9625 21.0133L18.924 14.8312L18.5744 14.8148C18.3821 14.8058 17.7213 14.8435 17.1059 14.8987ZM47.452 18.1567C47.5037 18.9454 47.6353 20.6614 47.7444 21.9703C47.8535 23.2791 47.9432 24.5284 47.9437 24.7466L47.9447 25.1432H47.1643H46.384L46.4636 24.3805C46.5074 23.9611 46.6414 22.1899 46.7614 20.4448C46.8814 18.6997 47.0091 17.1484 47.0453 16.9973C47.1996 16.3519 47.3642 16.8211 47.452 18.1567ZM80.1742 16.994C80.3574 17.2221 80.3919 17.7555 80.3919 20.35C80.3919 23.3027 80.3796 23.4455 80.1037 23.6862C79.943 23.8264 79.6798 23.921 79.5093 23.8998C79.2033 23.8618 79.2031 23.86 79.1661 20.2923L79.129 16.7227H79.5427C79.8118 16.7227 80.0326 16.8175 80.1742 16.994ZM91.1331 16.8692C91.3749 17.0802 91.3749 28.813 91.1331 29.024C90.8762 29.2481 90.3488 29.1982 90.1869 28.9344C90.0929 28.7811 90.0422 26.6643 90.0422 22.9023C90.0422 17.7959 90.0683 17.0835 90.2619 16.9144C90.5237 16.6861 90.9008 16.6665 91.1331 16.8692ZM26.4816 19.3466C27.8286 22.4694 27.6614 26.3743 26.0669 29.0297L25.8814 29.3385L25.6371 28.926C24.4563 26.9336 24.011 23.7934 24.5725 21.4195C24.8219 20.3648 25.4476 18.7877 25.748 18.4566C25.9486 18.2355 26.061 18.3719 26.4816 19.3466ZM35.2176 42.2893V47.964H73.6088H112V42.2893V36.6146H73.6088H35.2176V42.2893ZM40.2223 40.0621L40.262 41.374H41.2363H42.2105V40.0316V38.6892H42.9797H43.749V42.2283V45.7673H42.9797H42.2105V44.1808V42.5944H41.2315H40.2525V44.1808V45.7673H39.4133H38.5742V42.2222V38.677L39.3784 38.7136L40.1826 38.7502L40.2223 40.0621ZM58.9936 39.2994V39.9096H57.595H56.1964V40.6418V41.374H57.4551H58.7138V41.9842V42.5944H57.4551H56.1964V43.6317V44.669H57.595H58.9936V45.2182V45.7673H56.8257H54.6579V42.2283V38.6892H56.8257H58.9936V39.2994ZM74.212 39.1469C74.253 39.5169 74.291 39.5435 74.7791 39.5435C75.1156 39.5435 75.5295 39.6692 75.9388 39.8958C76.8027 40.3738 77.2004 41.0963 77.2065 42.1993C77.2157 43.8427 76.2398 44.9131 74.7321 44.9131C74.2608 44.9131 74.2382 44.9327 74.2382 45.3402V45.7673H73.399H72.5599V45.3402C72.5599 44.9205 72.5498 44.9131 71.9778 44.9131C71.1806 44.9131 70.3357 44.4586 69.901 43.7962C69.4367 43.0884 69.4017 41.5727 69.8326 40.8327C70.2505 40.1151 71.0084 39.6424 71.8551 39.5715C72.551 39.5132 72.5599 39.5072 72.5599 39.0947V38.677L73.364 38.7136C74.1591 38.7499 74.1688 38.7548 74.212 39.1469ZM92.6296 39.2994V39.8486L91.6855 39.8847L90.7415 39.9207V42.8441V45.7673H89.9723H89.203V42.8385V39.9096H88.224H87.245V39.2967V38.684L89.9373 38.717L92.6296 38.7502V39.2994ZM104.727 40.0149V41.3406L105.63 41.4038C106.759 41.4829 107.34 41.772 107.759 42.4626C108.352 43.4413 108.074 44.8841 107.174 45.5024C106.823 45.7432 106.623 45.7673 104.988 45.7673H103.189V42.2283V38.6892H103.958H104.727V40.0149ZM71.5852 40.9429C71.3666 41.1459 71.2392 41.442 71.1941 41.8513C71.0627 43.0449 71.461 43.8147 72.2102 43.8147H72.5599V42.2283C72.5599 40.6491 72.5583 40.6418 72.2345 40.6418C72.0557 40.6418 71.7635 40.7773 71.5852 40.9429ZM74.2382 42.2283V43.8147H74.5776C75.3321 43.8147 75.7953 42.7035 75.4953 41.6126C75.3254 40.9942 74.9591 40.6418 74.4867 40.6418C74.2612 40.6418 74.2382 40.7893 74.2382 42.2283ZM104.757 43.6622L104.797 44.73L105.413 44.7181C106.174 44.7034 106.406 44.4649 106.406 43.6965C106.406 42.8895 106.121 42.5944 105.343 42.5944H104.716L104.757 43.6622Z" fill="white"/>
</svg>
