<svg width="60" height="26" fill="none" xmlns="http://www.w3.org/2000/svg"><path fill-rule="evenodd" clip-rule="evenodd" d="M13.639.315c-1.47 2.058-2.297 4.146-2.572 6.493-.107.91-.049 2.893.108 3.704.355 1.832 1.126 3.698 2.144 5.185.532.777.53.776.873.32 1.67-2.221 2.683-5.494 2.552-8.248-.13-2.706-1.003-5.158-2.658-7.459L13.864 0l-.225.315Zm1.01 2.298c.993 1.935 1.445 3.787 1.445 5.916 0 .767-.172 2.554-.253 2.626-.015.013-.05-.372-.079-.855-.097-1.64-.386-2.981-.94-4.35-.312-.776-.893-1.916-.975-1.916-.083 0-.633 1.086-.921 1.818-.6 1.525-.86 2.684-.922 4.099-.048 1.111-.104 1.4-.185.958-.03-.164-.096-.807-.146-1.429-.158-1.944.106-3.696.837-5.563.353-.9.973-2.164 1.236-2.519l.117-.157.223.356c.122.195.375.653.562 1.016Zm4.293 9.816v4.495H20.815V9.058h1.798V7.934H18.942v4.495Zm4.795-4.401c0 .051-.17 1.575-.377 3.387-.48 4.199-.597 5.25-.597 5.394 0 .104.094.115.926.115h.926l.05-.71c.028-.391.07-.926.096-1.19l.045-.48h.937l.043.282c.024.154.066.69.093 1.19l.05.908h1.919l-.035-.214c-.02-.119-.236-2-.481-4.182a524.268 524.268 0 0 0-.492-4.28l-.046-.314h-1.529c-1.266 0-1.528.016-1.528.094Zm6.069-.025c-.407.075-.662.233-.862.533-.13.194-.153.369-.175 1.266l-.026 1.04h1.887v-.71c.002-.745.086-1.022.324-1.062.316-.054.35.073.35 1.318 0 1.47.015 1.447-.937 1.447h-.636v.991h.566c.544 0 .831.068.95.225.03.04.055.64.056 1.332.001 1.334-.02 1.418-.353 1.418-.258 0-.32-.227-.32-1.162v-.821h-1.886l.025 1.173c.028 1.302.076 1.461.53 1.746.23.146.32.155 1.606.175 1.256.019 1.385.01 1.666-.117a1.05 1.05 0 0 0 .474-.417c.16-.263.17-.368.19-1.767.02-1.321.007-1.513-.111-1.718-.17-.29-.57-.53-.89-.53-.354 0-.384-.112-.044-.163.434-.065.754-.268.915-.582.123-.24.144-.438.145-1.403.002-2.015-.189-2.225-2.058-2.256-.577-.01-1.201.01-1.386.044ZM34.6 12.43v4.495h1.948V9.058h.674v7.866H39.096v-8.99h-4.495v4.495Zm5.9-4.457c-.031.028-.056 2.053-.056 4.501v4.451h1.948v-3.04h.77c1 0 1.348-.135 1.627-.628.187-.33.188-.335.188-2.248 0-1.054-.027-2.027-.06-2.163-.07-.29-.352-.607-.68-.762-.195-.092-.526-.115-1.958-.136-.947-.014-1.748-.003-1.78.025Zm6.912.03c-.443.083-.675.24-.88.595l-.17.29v7.15l.17.291c.307.532.402.56 1.931.584 1.196.018 1.377.007 1.67-.108.26-.101.366-.195.508-.45l.18-.322V8.827l-.17-.28c-.28-.462-.597-.563-1.853-.587-.577-.01-1.2.008-1.386.043Zm4.795 4.426v4.496h1.948l.002-2.825c.002-2.61.046-3.168.18-2.298.028.182.234 1.345.459 2.585.224 1.24.408 2.318.408 2.396 0 .137.031.142.785.142.753 0 .787-.006.823-.148.052-.203.268-1.389.647-3.553.175-1 .346-1.847.38-1.881.034-.035.062 1.207.062 2.76v2.822h1.948v-8.99h-1.232c-.677 0-1.247.023-1.266.05-.019.027-.191.823-.383 1.768a758.96 758.96 0 0 1-.527 2.578c-.099.473-.221 1.09-.273 1.372-.052.282-.116.512-.143.512-.026 0-.09-.216-.142-.48a865.55 865.55 0 0 1-.715-3.553c-.149-.744-.313-1.548-.364-1.784l-.093-.43-1.252-.018-1.252-.018v4.497ZM9.164 8.07c-4.63.42-8.304 3.468-9.07 7.526-.153.818-.114 2.523.077 3.278.926 3.665 4.102 6.356 8.281 7.017.931.147 2.5.145 3.447-.004 1.915-.303 3.763-1.105 5.123-2.226l.57-.47v-6.134h-7.417v2.725l.264-.177c1.404-.945 3.467-.557 4.291.807.678 1.122.422 2.254-.72 3.196-1.005.828-2.425 1.315-3.828 1.314-4.505-.003-7.248-4.285-4.94-7.714.362-.54 1.128-1.233 1.772-1.606.629-.364 1.57-.69 2.187-.755.227-.024.54-.06.695-.08l.283-.036-.02-3.349-.021-3.348-.187-.01a9.118 9.118 0 0 0-.787.046ZM25.42 9.835c.027.427.098 1.357.156 2.066.059.709.107 1.385.107 1.503v.215h-.835l.042-.413c.024-.227.096-1.186.16-2.132.064-.945.132-1.785.152-1.867.082-.35.17-.096.218.628Zm17.53-.63c.098.124.116.413.116 1.818 0 1.6-.007 1.677-.154 1.807a.47.47 0 0 1-.319.116c-.164-.02-.164-.022-.184-1.954l-.02-1.934h.222c.144 0 .263.052.338.147Zm5.87-.068c.13.115.13 6.47 0 6.584-.137.122-.42.095-.507-.048-.05-.083-.077-1.23-.077-3.268 0-2.766.014-3.151.118-3.243.14-.124.342-.134.466-.025ZM14.187 10.48c.721 1.692.632 3.807-.223 5.245l-.099.168-.13-.224c-.633-1.079-.872-2.78-.571-4.066.133-.571.469-1.425.63-1.605.107-.12.167-.046.393.482Zm4.68 12.428v3.073H60v-6.147H18.867v3.074Zm2.68-1.207.022.71h1.044V20.958h.824v3.834h-.824V23.072h-1.049V24.791h-.9v-3.84l.432.019.43.02.022.71Zm10.057-.413v.33h-1.499v.794H31.454v.661H30.105v1.124h1.499v.595H29.28v-3.834h2.323v.33Zm8.152-.082c.022.2.043.214.304.214.18 0 .402.069.621.191.463.26.676.65.68 1.248.005.89-.518 1.47-1.326 1.47-.252 0-.265.01-.265.231v.232h-.899v-.232c0-.227-.005-.231-.312-.231-.427 0-.88-.246-1.112-.605-.249-.383-.268-1.204-.037-1.605.224-.389.63-.645 1.084-.683.373-.032.377-.035.377-.259v-.226l.431.02c.426.02.431.022.454.235Zm9.867.082v.298l-.506.02-.505.019v3.167h-.825v-3.173h-1.049v-.664l1.443.018 1.442.018v.297Zm6.48.388v.718l.484.034c.605.043.917.2 1.141.574.318.53.169 1.311-.314 1.646-.188.13-.294.144-1.17.144h-.964v-3.834h.824v.718Zm-17.754.502c-.117.11-.185.27-.21.492-.07.647.144 1.064.545 1.064h.187v-.86c0-.855 0-.859-.174-.859-.096 0-.252.074-.348.163Zm1.421.697v.859h.182c.404 0 .653-.602.492-1.193-.091-.335-.287-.526-.54-.526-.121 0-.134.08-.134.86Zm16.35.776.021.579.33-.007c.408-.008.532-.137.532-.553 0-.437-.152-.597-.57-.597h-.335l.022.578Z" fill="#fff"/></svg>