<svg width="220" height="48" viewBox="0 0 220 48" fill="none" xmlns="http://www.w3.org/2000/svg">
<g clip-path="url(#clip0_1226_3624)">
<path d="M143.567 30.056L140.078 21.953L136.608 30.056L136.366 30.607H143.791L143.567 30.056ZM142.416 15.9757L152.972 39.9999H147.824L145.65 34.9734H134.543L134.386 35.3186L132.345 39.9999H127.336L137.995 15.8364H142.277L142.416 15.9757ZM176.663 32.4784L171.17 15.8425H167.161L161.668 32.4784L156.345 15.8425H151.131L159.56 40.006H163.612L169.105 24.1332L174.598 40.006H178.691L187.103 15.8425H182.01L176.663 32.4784ZM195.903 29.626H204.835V25.2111H195.903V20.2452H208.856V15.8606H191.07V40.006H209.329V35.6033H195.903V29.6078V29.626ZM215.161 15.8606V39.9878H220.006V15.8425L215.161 15.8606ZM92.3205 25.5805H81.2501V15.8425H76.3447V40.0241H81.2501V30.1952H92.3205V40.0241H97.2259V15.8425H92.3205V25.5866V25.5805ZM119.954 15.8364H124.853V29.4806C124.853 36.4087 121.038 40.3815 114.389 40.3815C107.739 40.3815 104.027 36.4753 104.027 29.6744V15.8546H108.932V29.517C108.932 33.5563 110.919 35.7183 114.461 35.7183C118.004 35.7183 119.954 33.6108 119.954 29.6623V15.8425V15.8364Z" fill="white"/>
<path d="M36.9137 37.4503C36.9523 37.4758 36.9976 37.4895 37.0439 37.4895C37.0902 37.4895 37.1355 37.4758 37.1741 37.4503C39.972 36.0514 51.6298 30.1286 56.4504 25.4109C58.3245 23.7829 59.4784 21.4795 59.6601 19.0037C60.0053 13.5533 54.4943 8.44805 54.4943 8.44805C47.5148 17.2888 41.5846 26.9095 36.8229 37.1172C36.8093 37.1717 36.81 37.2287 36.8249 37.2828C36.8397 37.3368 36.8682 37.3862 36.9077 37.4261L36.9137 37.4503ZM63.6995 24.7085C63.6995 24.7085 47.0818 33.6411 38.4822 39.4427C38.4381 39.4725 38.4043 39.5155 38.3859 39.5654C38.3674 39.6154 38.3651 39.67 38.3793 39.7213C38.3793 39.7213 38.4641 39.8788 38.5852 39.8788C41.6616 39.8788 53.3013 39.8788 53.6102 39.8424C54.7658 39.759 55.9015 39.4975 56.9773 39.0673C59.7926 37.9616 62.0536 35.7833 63.2635 33.0113C64.414 30.3801 64.5668 27.4199 63.6934 24.6842L63.6995 24.7085ZM38.9183 41.3322C38.8719 41.3411 38.8279 41.3597 38.7893 41.3869C38.7507 41.414 38.7182 41.4491 38.6942 41.4897C38.6824 41.5352 38.6824 41.5829 38.694 41.6284C38.7057 41.674 38.7286 41.7158 38.7608 41.7501C40.6261 43.0945 46.3066 47.0673 49.056 47.8061C49.056 47.8061 54.1189 49.5321 58.5034 41.9863L38.9364 41.3141L38.9183 41.3322ZM34.2915 35.8818C34.3425 35.9016 34.3989 35.9021 34.4503 35.8831C34.5016 35.8642 34.5442 35.8271 34.57 35.7789C36.4353 33.0839 44.9137 20.5056 46.6215 12.8689C46.6215 12.8689 47.5541 9.17477 46.6579 6.64941C46.187 5.17251 45.346 3.84066 44.215 2.78063C43.0839 1.72059 41.7004 0.967628 40.1961 0.593395C40.1961 0.593395 38.7124 0.211866 37.1196 -0.012207C37.1196 -0.012207 31.318 7.44881 34.1461 35.6396C34.1406 35.6872 34.1514 35.7352 34.1767 35.7759C34.2019 35.8166 34.2403 35.8475 34.2854 35.8636L34.2915 35.8818ZM27.8055 0.00596029C26.9576 0.0725765 24.6624 0.611562 24.6624 0.611562C23.1681 0.993999 21.7958 1.75064 20.6748 2.81016C19.5538 3.86968 18.7211 5.1972 18.2551 6.66758C17.3043 9.62292 18.2551 12.8871 18.2551 12.8871C19.9811 20.554 28.4777 33.1808 30.3127 35.8273C30.4338 35.9666 30.5367 35.9121 30.5367 35.9121C30.5896 35.8968 30.6363 35.865 30.67 35.8215C30.7037 35.778 30.7228 35.7249 30.7245 35.6698C33.5587 7.47908 27.7873 0.0180657 27.7873 0.0180657L27.8055 0.00596029ZM26.5155 39.7456C26.6185 39.5881 26.4489 39.4549 26.4489 39.4549C17.8675 33.6532 1.21349 24.7387 1.21349 24.7387C0.66315 26.43 0.510023 28.2254 0.765995 29.9854C1.02197 31.7455 1.68015 33.4228 2.68945 34.8873C3.69874 36.3517 5.03199 37.5638 6.58566 38.4295C8.13933 39.2952 9.87162 39.7911 11.648 39.8788C11.9387 39.9333 23.2695 39.8788 26.3096 39.8788C26.3913 39.8664 26.465 39.823 26.5155 39.7577V39.7456ZM26.2248 41.5018C26.2056 41.4487 26.1701 41.4031 26.1233 41.3715C26.0765 41.34 26.0209 41.3241 25.9644 41.3262L6.40956 41.9984C8.53522 45.7834 12.1083 48.7145 15.8206 47.8182C18.3944 47.1763 24.1961 43.1187 26.1158 41.7622C26.2733 41.6411 26.2188 41.5381 26.2188 41.52L26.2248 41.5018ZM28.0356 37.4806C28.0698 37.4517 28.0936 37.4123 28.1035 37.3686C28.1133 37.3249 28.1086 37.2792 28.0901 37.2383C23.3362 26.9891 17.3971 17.3325 10.3944 8.46622C10.3944 8.46622 4.83499 13.7531 5.22864 19.0521C5.32171 20.2741 5.6547 21.4657 6.20855 22.5588C6.76241 23.652 7.52628 24.6253 8.45649 25.4231C13.3013 30.1528 25.056 36.1301 27.7812 37.4988C27.8252 37.5161 27.8733 37.5202 27.9196 37.5105C27.9659 37.5008 28.0083 37.4778 28.0417 37.4443" fill="white"/>
</g>
<defs>
<clipPath id="clip0_1226_3624">
<rect width="219.361" height="48" fill="white" transform="translate(0.638672)"/>
</clipPath>
</defs>
</svg>
