<svg width="151" height="48" viewBox="0 0 151 48" fill="none" xmlns="http://www.w3.org/2000/svg">
<g clip-path="url(#clip0_1226_3598)">
<path d="M108.794 3.86963H105.312V27.5295H108.794V3.86963Z" fill="white"/>
<path d="M114.687 23.252C113.384 23.252 112.335 24.3002 112.335 25.6018C112.335 26.9035 113.384 27.9517 114.687 27.9517C115.99 27.9517 117.039 26.9035 117.039 25.6018C117.039 24.3002 115.99 23.252 114.687 23.252Z" fill="white"/>
<path d="M123.84 19.2899C123.84 16.4678 125.535 14.0488 128.821 14.0488H130.896V10.7544H128.821C126.25 10.7544 125.074 11.5722 123.875 12.9315L123.852 12.966V10.7544H120.404V27.5145H123.84C123.84 27.5029 123.84 20.4303 123.84 19.2899Z" fill="white"/>
<path d="M101.531 10.7544H98.0488V27.5145H101.531V10.7544Z" fill="white"/>
<path d="M99.7896 7.98048C101.092 7.98048 102.142 6.93226 102.142 5.63062C102.142 4.32898 101.081 3.28076 99.7896 3.28076C98.4867 3.28076 97.4375 4.32898 97.4375 5.63062C97.4375 6.93226 98.4982 7.98048 99.7896 7.98048Z" fill="white"/>
<path d="M90.855 12.4535C89.5175 11.0942 87.4653 10.334 85.4246 10.334C80.5591 10.334 76.6045 14.285 76.6045 19.146C76.6045 24.007 80.5591 27.958 85.4246 27.958C87.4653 27.958 89.6213 27.0825 90.855 25.7002V27.5318H94.2792V10.7602H90.855V12.4535ZM85.5399 24.4562C82.5422 24.4562 80.2593 22.1524 80.2593 19.146C80.2593 16.1395 82.5422 13.8588 85.5399 13.8588C88.5375 13.8588 90.9011 16.0013 90.9011 19.146C90.9011 22.2906 88.5375 24.4562 85.5399 24.4562Z" fill="white"/>
<path d="M140.535 27.9522C142.091 27.9522 144.074 27.1113 145.319 25.6829C145.331 26.3165 145.319 26.8924 145.319 27.5145H148.744V20.1999V10.7544H145.308V19.958C145.308 22.3424 143.486 24.5656 140.754 24.5656C138.367 24.5656 136.672 22.8378 136.672 20.3612V10.7659H133.236V20.6492C133.248 25.0724 135.634 27.9522 140.535 27.9522Z" fill="white"/>
<path d="M66.5502 10.334C64.2674 10.334 62.0307 11.3707 60.6702 13.0064C59.425 11.3592 57.6149 10.334 55.1821 10.334C53.199 10.334 51.7809 11.2209 51.02 11.9351V10.7602H47.5957V27.5202H51.02V17.7176C51.02 15.529 52.807 13.7551 54.9861 13.7551C57.1652 13.7551 58.9523 15.5405 58.9523 17.7176V27.5202H62.3765V17.7176C62.3765 15.529 64.1636 13.7551 66.3427 13.7551C68.5218 13.7551 70.3089 15.5405 70.3089 17.7176V27.5202H73.7331V17.7176C73.7562 13.2252 70.8392 10.334 66.5502 10.334Z" fill="white"/>
<path d="M111.769 35.2674L111.746 35.2904V33.9888H110.743H109.729H109.556V43.826H109.729H111.746C111.746 43.8144 111.746 39.8865 111.746 39.2184C111.746 37.5596 112.738 36.1428 114.663 36.1428H115.874V33.9888H114.663C113.164 33.9888 112.473 34.4726 111.769 35.2674Z" fill="white"/>
<path d="M135.324 39.3818C135.324 40.9599 134.056 41.9044 132.822 41.9044C131.519 41.9044 130.597 40.9599 130.597 39.6122V34.0024H128.395V39.7734C128.395 42.5034 129.963 44.0815 132.683 44.0815C133.571 44.0815 134.62 43.6323 135.312 42.9526C135.312 43.1254 135.312 43.2982 135.312 43.471V43.8396H137.503V34.0024H135.301L135.324 39.3818Z" fill="white"/>
<path d="M121.58 33.7485C118.732 33.7485 116.415 36.0638 116.415 38.909C116.415 41.7542 118.732 44.0695 121.58 44.0695C124.428 44.0695 126.745 41.7542 126.745 38.909C126.745 36.0638 124.44 33.7485 121.58 33.7485ZM121.58 41.8809C119.943 41.8809 118.606 40.5447 118.606 38.909C118.606 37.2733 119.943 35.9371 121.58 35.9371C123.217 35.9371 124.555 37.2733 124.555 38.909C124.555 40.5447 123.229 41.8809 121.58 41.8809Z" fill="white"/>
<path d="M144.893 33.7485C143.763 33.7485 142.668 34.1402 141.896 34.8083V33.9904H139.705V47.2142H141.896V42.9522C142.634 43.6433 143.775 44.081 144.893 44.081C147.741 44.081 150.059 41.7657 150.059 38.9205C150.059 36.0638 147.741 33.7485 144.893 33.7485ZM144.824 41.8348C143.106 41.8348 141.861 40.6023 141.861 38.909C141.861 37.2157 143.106 35.9947 144.824 35.9947C146.484 35.9947 147.741 37.2503 147.741 38.909C147.741 40.5793 146.484 41.8348 144.824 41.8348Z" fill="white"/>
<path d="M105.185 34.8083C104.413 34.1402 103.318 33.7485 102.188 33.7485C99.3399 33.7485 97.0225 36.0638 97.0225 38.909C97.0225 41.7542 99.3399 44.0695 102.188 44.0695C103.306 44.0695 104.447 43.6318 105.185 42.9406V43.1365C105.151 45.1523 104.171 46.1775 102.257 46.1775H102.234C101.15 46.1775 100.193 45.7628 99.3053 44.8989L99.2246 44.8182L97.6335 46.3387L97.7027 46.4194C98.5213 47.3754 100.182 48.4697 102.176 48.4697C102.211 48.4697 102.245 48.4697 102.28 48.4697C104.148 48.4352 107.284 47.7095 107.376 43.2171V33.9789H105.185V34.8083ZM102.257 41.8348C100.597 41.8348 99.3399 40.5793 99.3399 38.909C99.3399 37.2503 100.597 35.9947 102.257 35.9947C103.975 35.9947 105.22 37.2157 105.22 38.909C105.208 40.6023 103.975 41.8348 102.257 41.8348Z" fill="white"/>
<path d="M24.5368 18.8434C24.5368 21.8959 22.058 24.3725 19.0027 24.3725C15.9473 24.3725 13.4685 21.8959 13.4685 18.8434C13.4685 15.7909 15.9473 13.3143 19.0027 13.3143C22.058 13.3143 24.5368 15.8024 24.5368 18.8434ZM19.0027 0.470703C8.8567 0.470703 0.601562 8.71826 0.601562 18.8549C0.601562 28.9916 8.8567 37.2276 19.0027 37.2276C22.7152 37.2276 26.3009 36.1218 29.3677 34.0254L29.4254 33.9908L26.9465 31.1111L26.9004 31.1341C24.5368 32.6431 21.8159 33.4494 19.0027 33.4494C10.9435 33.4494 4.38324 26.8951 4.38324 18.8434C4.38324 10.7917 10.9435 4.2374 19.0027 4.2374C27.0618 4.2374 33.6221 10.7917 33.6221 18.8434C33.6221 19.8916 33.5068 20.9399 33.2762 21.9881C32.815 23.8887 31.4891 24.4646 30.4861 24.384C29.483 24.3034 28.307 23.5892 28.2955 21.8383V18.8434C28.2955 13.7175 24.1218 9.54763 18.9911 9.54763C13.8605 9.54763 9.68682 13.7175 9.68682 18.8434C9.68682 23.9693 13.8605 28.1392 18.9911 28.1392C21.4815 28.1392 23.822 27.1601 25.586 25.3977C26.6122 26.9873 28.2839 27.9894 30.1863 28.1392C30.3477 28.1507 30.5207 28.1622 30.6821 28.1622C32.0195 28.1622 33.3454 27.713 34.4176 26.9067C35.5245 26.0658 36.3431 24.8563 36.7927 23.4049C36.8619 23.1745 37.0002 22.6331 37.0002 22.6331V22.6101C37.2654 21.4467 37.3923 20.2833 37.3923 18.8434C37.4038 8.71826 29.1486 0.470703 19.0027 0.470703Z" fill="white"/>
</g>
<defs>
<clipPath id="clip0_1226_3598">
<rect width="150" height="48" fill="white" transform="translate(0.519531)"/>
</clipPath>
</defs>
</svg>
