<svg width="143" height="48" viewBox="0 0 143 48" fill="none" xmlns="http://www.w3.org/2000/svg">
<path fill-rule="evenodd" clip-rule="evenodd" d="M14.7267 11.043V21.9161H16.8355H18.9443V11.043V0H16.8355H14.7267V11.043ZM9.90656 15.5605V26.3888H12.0154H14.1242V15.5605V4.61796H12.0154H9.90656V15.5605ZM19.7477 15.5676V26.4027H21.7979H23.8649L23.9213 15.5103L23.9778 4.61796H21.8627H19.7477V15.5676ZM5.08641 18.82V28.6189L7.04821 30.5727C8.12712 31.6473 9.07187 32.5265 9.14739 32.5265C9.2229 32.5265 9.26648 27.2636 9.24419 20.831L9.20362 9.13553L7.14502 9.07831L5.08641 9.02109V18.82ZM24.5678 20.8459V32.6197L26.6785 30.5169L28.7893 28.4139L28.7371 18.7746L28.685 9.13553L26.6264 9.10381L24.5678 9.07209V20.8459ZM0.0654297 13.5C0.0654297 13.5 0.0654297 16.2438 0.0654297 19.083V24.2451L1.72396 25.7255C2.63617 26.5396 3.58514 27.3779 3.83277 27.5883L4.28306 27.9708V20.8322V13.5221L2.06543 13.5C0.981098 13.4869 0.0654297 13.5 0.0654297 13.5ZM29.5019 13.5V27.9086C29.5019 27.9086 30.5117 27.1179 31.6067 26.1517L33.5976 24.3949L33.6016 19.016V13.5H31.5654H29.5019ZM29.388 42.4475V47.7859H30.9947H32.6014V45.9788V44.1718L35.865 44.1566C39.5647 44.1393 40.311 43.9664 40.9865 42.9713C41.3608 42.4198 41.4383 42.0331 41.4383 40.7188C41.4383 38.8728 41.1345 38.1203 40.1797 37.6019C39.6203 37.2981 38.8276 37.2394 34.4592 37.1792L29.388 37.1089V42.4475ZM45.2543 37.3704C44.3192 37.6476 43.6908 38.2622 43.4475 39.1374C43.3379 39.5322 43.2477 41.1199 43.2473 42.666C43.2465 45.7712 43.4423 46.4822 44.5156 47.2697C45.0472 47.6596 45.3499 47.6855 49.3711 47.6855C53.4062 47.6855 53.6932 47.6608 54.2268 47.2658C55.2732 46.492 55.3973 45.9804 55.3911 42.4652C55.3824 37.3959 55.2511 37.275 49.6728 37.2073C47.5467 37.1814 45.6566 37.2513 45.2543 37.3704ZM59.0118 37.4384C57.2952 38.0622 57.0018 38.9812 57.1446 43.285C57.245 46.3053 57.422 46.7699 58.7248 47.4341C59.7465 47.9549 66.7124 47.9549 67.734 47.4341C68.7852 46.8984 69.1632 46.2417 69.212 44.8665L69.2546 43.6699H67.6497H66.0448L65.9416 44.2668C65.7988 45.0916 65.1324 45.3701 63.2927 45.3735C61.561 45.3769 60.8412 45.1783 60.6302 44.639C60.5512 44.4372 60.4944 43.4201 60.504 42.3788C60.5275 39.8157 60.5888 39.7546 63.1437 39.7546C64.2222 39.7546 65.243 39.8078 65.4125 39.8727C65.5818 39.9377 65.8235 40.3028 65.9494 40.684L66.1781 41.3771L67.7164 41.3187L69.2546 41.2605L69.2299 40.2457C69.199 38.9772 68.736 38.0588 67.8955 37.5996C66.9992 37.1099 60.2522 36.9875 59.0118 37.4384ZM71.0999 37.4197C71.0385 37.5798 70.9794 39.9777 70.9688 42.7485L70.9493 47.7859H72.6626H74.376V45.7947C74.376 44.6714 74.462 43.7745 74.5732 43.7367C74.6817 43.7 75.9018 43.6976 77.2846 43.7315L79.7987 43.7931V45.7895V47.7859H81.5092H83.2196L83.1661 42.5154L83.1125 37.2449H81.5058H79.8991L79.884 39.2187L79.869 41.1924L77.199 41.186C75.7307 41.1824 74.5031 41.1525 74.4712 41.1195C74.4393 41.0866 74.3822 40.2014 74.3443 39.1523L74.2756 37.2449L72.7436 37.1866C71.5514 37.1415 71.1869 37.1931 71.0999 37.4197ZM87.1293 37.331C85.1767 37.802 84.9201 38.3988 84.9201 42.4652C84.9201 45.9782 85.0454 46.4928 86.0892 47.2658C86.6238 47.662 86.9483 47.6891 91.8633 47.7479L97.0709 47.8106V46.5934V45.3765H93.2643C90.783 45.3765 89.2781 45.2946 88.9415 45.1414C88.4701 44.9265 88.0455 44.0925 88.2853 43.8526C88.3402 43.7978 90.3168 43.7343 92.6777 43.7114L96.9704 43.6699V42.4652V41.2605L93.1545 41.2199C91.0557 41.1976 89.0899 41.175 88.7862 41.1697C88.1319 41.1583 88.0303 40.6035 88.5896 40.0974C88.8856 39.8295 89.6177 39.7655 92.9579 39.7149L96.9704 39.6542L97.0303 38.3994L97.0899 37.1445L92.411 37.165C89.8374 37.1764 87.4607 37.2511 87.1293 37.331ZM106.109 38.1484V39.1523L103.247 39.1531C100.102 39.1539 99.4964 39.3332 98.7392 40.4885C98.2036 41.3057 98.2337 43.5482 98.7904 44.2945C99.7388 45.5662 100.06 45.6716 103.211 45.7467L106.109 45.8158V46.8008V47.7859H107.705H109.301L109.362 46.7516L109.422 45.7176L111.956 45.7401C114.2 45.76 114.591 45.7116 115.366 45.3185C116.553 44.7167 117.054 43.81 117.019 42.3228C116.987 40.9298 116.448 39.9414 115.464 39.4747C114.944 39.2278 114.145 39.1523 112.053 39.1523H109.322V38.1484V37.1445H107.715H106.109V38.1484ZM116.954 38.461V39.7775L119.013 39.7392L121.071 39.7008L121.126 43.7433L121.18 47.7859H122.883H124.586V43.7702V39.7546L126.644 39.7309C127.777 39.7177 128.771 39.7177 128.854 39.7309C128.937 39.744 129.004 39.1673 129.004 38.4496V37.1445H122.979H116.954V38.461ZM130.41 42.4652V47.7859L135.281 47.7815C139.607 47.7776 140.243 47.7351 140.98 47.4008C142.081 46.9008 142.545 45.7702 142.425 43.8815C142.332 42.4238 141.916 41.6635 140.936 41.1621C140.419 40.8977 138.137 40.7636 134.076 40.7591C133.641 40.7585 133.624 40.6915 133.624 38.9515V37.1445H132.017H130.41V42.4652ZM37.9839 39.9956C38.3219 40.3335 38.284 41.0726 37.9094 41.447C37.6563 41.7 37.099 41.7624 35.0976 41.7624H32.6014V40.7585V39.7546H35.1722C36.9038 39.7546 37.8216 39.8333 37.9839 39.9956ZM51.6812 39.9508C51.8991 40.0881 52.0101 40.6443 52.0828 41.9592C52.2055 44.1812 52.0384 44.9253 51.359 45.1837C50.7121 45.4295 48.044 45.4345 47.4035 45.1912C46.7248 44.9332 46.6212 44.5461 46.6491 42.3734C46.6821 39.7988 46.7287 39.7536 49.3524 39.7576C50.4675 39.7594 51.5155 39.8462 51.6812 39.9508ZM106.109 42.4652V43.5695H104.315C102.363 43.5695 101.891 43.3546 101.891 42.4652C101.891 41.5757 102.363 41.3609 104.315 41.3609H106.109V42.4652ZM113.224 41.6763C113.398 41.85 113.54 42.205 113.54 42.4652C113.54 43.3546 113.068 43.5695 111.115 43.5695H109.322V42.4652V41.3609H111.115C112.478 41.3609 112.984 41.4368 113.224 41.6763ZM139.129 44.0152C139.28 44.4473 139.243 44.6463 138.951 44.9689C138.618 45.3365 138.34 45.3765 136.103 45.3765H133.624V44.3858C133.624 43.2049 133.594 43.2143 136.833 43.3687C138.906 43.4675 138.941 43.4773 139.129 44.0152Z" fill="white"/>
<path d="M9.90656 48V38.6732V27.7306H12.0154H14.1242V38.6732V48H12.0154H9.90656Z" fill="white"/>
<path d="M19.6473 48V38.6732V27.7306H21.7561H23.8649V38.6732V48H21.7561H19.6473Z" fill="white"/>
<path d="M14.7267 48V38.6732V23.2579H16.8355H18.9443V38.6732V48H16.8355H14.7267Z" fill="white"/>
</svg>
