<?xml version="1.0" encoding="utf-8"?>
<!-- Generator: Adobe Illustrator 20.1.0, SVG Export Plug-In . SVG Version: 6.00 Build 0)  -->
<svg version="1.1" id="Layer_1" xmlns="http://www.w3.org/2000/svg" xmlns:xlink="http://www.w3.org/1999/xlink" x="0px" y="0px"
	 viewBox="0 0 106 26" style="enable-background:new 0 0 106 26;" xml:space="preserve">
<style type="text/css">
	.st0{clip-path:url(#SVGID_2_);}
	.st1{fill:#FFFFFF;}
</style>
<g>
	<defs>
		<rect id="SVGID_1_" y="0" width="106" height="26"/>
	</defs>
	<clipPath id="SVGID_2_">
		<use xlink:href="#SVGID_1_"  style="overflow:visible;"/>
	</clipPath>
	<g class="st0">
		<path class="st1" d="M14.7,8.1c0.4,0.5,0.7,1.1,1,1.6l-7.5,5.5l-3.1-2V11l3.1,2L14.7,8.1z M1.9,13.2c0-0.1,0-0.2,0-0.3L0,12.7
			c-0.1,2.3,0.8,4.6,2.4,6.2l1.3-1.3C2.6,16.4,1.9,14.8,1.9,13.2z M8.2,6.9c0.1,0,0.2,0,0.3,0L8.6,5C6.3,4.9,4,5.7,2.4,7.4l1.3,1.3
			C4.9,7.5,6.5,6.9,8.2,6.9z M8.2,19.5c-0.1,0-0.2,0-0.3,0l-0.1,1.9c2.3,0.1,4.6-0.8,6.2-2.4l-1.3-1.3C11.5,18.8,9.9,19.5,8.2,19.5z
			"/>
		<path class="st1" d="M11.8,8l1.6-1.2C11.9,5.6,10.1,5,8.2,5v1.9C9.5,6.9,10.7,7.2,11.8,8L11.8,8z M16.4,13.2c0-0.5,0-1-0.1-1.5
			L14.5,13v0.2c0,1.8-0.8,3.5-2.1,4.7l1.3,1.4C15.5,17.7,16.4,15.5,16.4,13.2L16.4,13.2z M8.2,19.5c-1.8,0-3.5-0.8-4.7-2.1l-1.4,1.3
			c1.6,1.7,3.8,2.7,6.1,2.7V19.5z M4,8.5L2.7,7.1C1,8.6,0,10.8,0,13.2h1.9C1.9,11.4,2.7,9.7,4,8.5L4,8.5z M47.4,9.6l2.4-1.7h-7.9
			v10.3h7.9v-1.7h-5.6v-2.6h4.8v-1.7h-4.8V9.6C44.1,9.6,47.4,9.6,47.4,9.6z M36.6,11.9h-2.7V9.6h4.4l2.3-1.7h-9v10.3h4.7
			c2.6,0,4.1-1.2,4.1-3.2C40.5,13,39.1,11.9,36.6,11.9L36.6,11.9z M36.2,16.5h-2.3v-2.8h2.3c1.4,0,2.1,0.5,2.1,1.4
			C38.3,16,37.6,16.5,36.2,16.5z M55.6,7.9h-4.3v10.3h2.2v-2.9h2c2.7,0,4.4-1.4,4.4-3.7C60,9.3,58.3,7.9,55.6,7.9L55.6,7.9z
			 M55.5,13.6h-2V9.6h2c1.4,0,2.2,0.7,2.2,2S56.9,13.6,55.5,13.6L55.5,13.6z M28.3,15.8c-0.6,0.3-1.2,0.5-1.9,0.5
			c-2,0-3.4-1.4-3.4-3.3s1.4-3.3,3.4-3.3c0.7,0,1.4,0.2,2,0.6l1.6-1.1L29.8,9c-0.9-0.8-2.1-1.2-3.5-1.2c-1.5,0-2.9,0.5-3.9,1.4
			c-0.5,0.5-0.9,1-1.2,1.7c-0.3,0.6-0.4,1.3-0.4,2c0,0.7,0.1,1.4,0.4,2c0.3,0.6,0.7,1.2,1.1,1.7c1,1,2.4,1.5,3.9,1.5
			c1.6,0,3-0.5,3.9-1.5l-1.4-1C28.7,15.5,28.3,15.8,28.3,15.8z M68.9,11.9h-2.7V9.6H72V7.9h-8.1v10.3h4.7c2.6,0,4.1-1.2,4.1-3.2
			C72.7,13,71.4,11.9,68.9,11.9L68.9,11.9z M68.5,16.5h-2.3v-2.8h2.3c1.4,0,2.1,0.5,2.1,1.4C70.6,16,69.9,16.5,68.5,16.5z
			 M98.2,18.2H96V7.9h2.3v4.3h1.2l3.3-4.3h2.6l-4,4.9l4.6,5.4h-3l-3.4-4h-1.4V18.2L98.2,18.2z M81,16.2h-4.8l-0.8,2h-2.4L77.5,8h2.4
			l4.4,10.3h-2.5L81,16.2L81,16.2z M80.2,14.4l-1.6-4l-1.6,4L80.2,14.4L80.2,14.4z M87.4,8v4.3h4.7V8h2.3v10.3h-2.3v-4h-4.7v4H85V8
			H87.4z"/>
	</g>
</g>
</svg>
