<svg width="106" height="26" fill="none" xmlns="http://www.w3.org/2000/svg">
  <g clip-path="url(#a)" fill="#fff">
    <path d="M14.72 8.145c.39.503.721 1.05.985 1.63L8.22 15.276l-3.128-1.956V10.97l3.128 1.955 6.5-4.78ZM1.898 13.155c0-.105.003-.21.008-.314L.01 12.748a8.154 8.154 0 0 0 2.397 6.201l1.345-1.34a6.278 6.278 0 0 1-1.854-4.454ZM8.217 6.854c.106 0 .21.004.315.01l.095-1.892a8.214 8.214 0 0 0-6.221 2.39l1.345 1.341a6.298 6.298 0 0 1 4.466-1.849ZM8.218 19.458c-.106 0-.211 0-.316-.009l-.095 1.89a8.209 8.209 0 0 0 6.218-2.39l-1.342-1.34a6.303 6.303 0 0 1-4.465 1.849Z"/>
    <path d="m11.78 7.954 1.598-1.175A8.196 8.196 0 0 0 8.215 4.96v1.893a6.3 6.3 0 0 1 3.565 1.1ZM16.434 13.155a8.227 8.227 0 0 0-.129-1.468l-1.768 1.3v.168a6.27 6.27 0 0 1-2.082 4.671l1.276 1.406a8.176 8.176 0 0 0 2.704-6.077ZM8.216 19.457a6.32 6.32 0 0 1-4.684-2.076l-1.409 1.272a8.195 8.195 0 0 0 6.093 2.697v-1.893ZM3.98 8.484 2.705 7.078A8.174 8.174 0 0 0 0 13.155h1.898a6.272 6.272 0 0 1 2.082-4.67ZM47.42 9.647l2.351-1.708h-7.869v10.263h7.87v-1.708h-5.624v-2.629h4.797v-1.708h-4.797v-2.51h3.272ZM36.607 11.937h-2.732v-2.29h4.36l2.35-1.714H31.63v10.264h4.687c2.628 0 4.136-1.175 4.136-3.223 0-1.959-1.366-3.037-3.847-3.037Zm-.39 4.551h-2.342v-2.844h2.342c1.42 0 2.087.477 2.087 1.422 0 .946-.709 1.422-2.087 1.422ZM55.555 7.938h-4.283V18.2h2.245v-2.908h2.038c2.733 0 4.423-1.417 4.423-3.683 0-2.265-1.69-3.672-4.423-3.672Zm-.048 5.646h-1.99V9.647h1.99c1.438 0 2.231.7 2.231 1.97s-.793 1.967-2.23 1.967ZM28.262 15.779c-.58.31-1.23.47-1.89.466-1.973 0-3.405-1.39-3.405-3.303s1.432-3.305 3.406-3.305a3.37 3.37 0 0 1 1.99.607l1.57-1.14-.107-.075c-.916-.794-2.14-1.215-3.54-1.215-1.52 0-2.899.505-3.882 1.422a4.956 4.956 0 0 0-1.156 1.67 4.896 4.896 0 0 0-.384 1.985c-.01.688.12 1.37.383 2.007a5.116 5.116 0 0 0 1.147 1.7c.989.954 2.364 1.48 3.873 1.48 1.576 0 2.954-.542 3.887-1.53l-1.405-1.032-.487.263ZM68.88 11.937h-2.73v-2.29h5.868V7.932h-8.114v10.264h4.681c2.628 0 4.136-1.175 4.136-3.223.006-1.959-1.36-3.037-3.84-3.037Zm-.39 4.551h-2.34v-2.844h2.34c1.422 0 2.088.477 2.088 1.422 0 .946-.703 1.422-2.088 1.422ZM98.245 18.182h-2.276V7.919h2.276v4.31h1.239l3.345-4.31h2.58L101.44 12.8l4.608 5.381h-3.02l-3.387-4.036h-1.396v4.036ZM80.99 16.231h-4.814l-.816 1.993h-2.422l4.516-10.263h2.421l4.443 10.263h-2.511l-.816-1.993Zm-.753-1.86-1.64-3.985-1.648 3.986h3.288ZM87.38 7.961v4.286h4.71V7.96h2.347v10.263H92.09V14.18h-4.71v4.044h-2.347V7.961h2.347Z"/>
  </g>
  <defs>
    <clipPath id="a">
      <path fill="#fff" d="M0 0h106v26H0z"/>
    </clipPath>
  </defs>
</svg>
