<svg width="194" height="48" viewBox="0 0 194 48" fill="none" xmlns="http://www.w3.org/2000/svg">
<path d="M26.7056 14.7771C27.4138 15.6902 28.0133 16.6823 28.492 17.7333L14.9119 27.7171L9.23633 24.169V19.9003L14.9119 23.4485L26.7056 14.7771Z" fill="white"/>
<path d="M3.44421 23.8678C3.44421 23.6762 3.44889 23.4859 3.45826 23.2968L0.0187323 23.1287C0.00702524 23.3738 4.15651e-06 23.6214 4.15651e-06 23.8712C-0.00145927 25.8232 0.383523 27.7562 1.13288 29.5594C1.88223 31.3627 2.98119 33.0006 4.36673 34.3792L6.80647 31.9472C5.73993 30.8878 4.89384 29.6287 4.31683 28.2421C3.73982 26.8556 3.44327 25.3689 3.44421 23.8678Z" fill="white"/>
<path d="M14.9094 12.4341C15.1014 12.4341 15.2921 12.4411 15.4818 12.4504L15.6539 9.01899C15.4073 9.00731 15.1591 9.00148 14.9094 9.00148C12.9512 8.99909 11.012 9.38249 9.20282 10.1296C7.39368 10.8768 5.75035 11.973 4.36719 13.3553L6.80693 15.7885C7.86921 14.7245 9.13191 13.8803 10.5224 13.3047C11.9129 12.729 13.4038 12.4331 14.9094 12.4341Z" fill="white"/>
<path d="M14.9088 35.3017C14.7168 35.3017 14.526 35.3017 14.3352 35.2865L14.1631 38.7168C14.4105 38.7292 14.6591 38.7355 14.9088 38.7355C16.8662 38.7375 18.8045 38.3538 20.6127 37.6065C22.4208 36.8591 24.0631 35.7628 25.4452 34.3805L23.0101 31.9485C21.9477 33.0119 20.6851 33.8556 19.2948 34.431C17.9046 35.0065 16.414 35.3024 14.9088 35.3017Z" fill="white"/>
<path d="M21.3713 14.4292L24.27 12.2984C21.6206 10.1588 18.3134 8.99406 14.9043 9.00002V12.4338C17.2128 12.4309 19.4677 13.1267 21.3713 14.4292Z" fill="white"/>
<path d="M29.8174 23.8677C29.8193 22.9745 29.7409 22.0827 29.5832 21.2034L26.3744 23.5618C26.3744 23.6635 26.3744 23.765 26.3744 23.8677C26.3752 25.4653 26.0394 27.0452 25.3889 28.505C24.7382 29.9648 23.7872 31.272 22.5977 32.3418L24.9122 34.893C26.4587 33.5006 27.6946 31.7996 28.5396 29.9003C29.3847 28.0009 29.82 25.9456 29.8174 23.8677Z" fill="white"/>
<path d="M14.9085 35.3016C13.3065 35.3021 11.7223 34.9671 10.2583 34.3183C8.79442 33.6695 7.48345 32.7212 6.41032 31.535L3.85352 33.8421C5.24953 35.3848 6.95507 36.6175 8.85954 37.4605C10.764 38.3034 12.8248 38.7378 14.9085 38.7353V35.3016Z" fill="white"/>
<path d="M7.22091 15.3935L4.9076 12.8424C3.3606 14.2346 2.12428 15.9355 1.27883 17.8348C0.433389 19.7342 -0.00230497 21.7895 9.1703e-06 23.8676H3.44422C3.44351 22.2702 3.77934 20.6902 4.42993 19.2304C5.08054 17.7707 6.0314 16.4634 7.22091 15.3935Z" fill="white"/>
<path d="M86.0341 17.5025L90.2998 14.4038H76.0234V33.0245H90.2998V29.9258H80.0971V25.1561H88.8005V22.0573H80.0971V17.5025H86.0341Z" fill="white"/>
<path d="M66.4173 21.6578H61.4609V17.5013H69.3712L73.6343 14.3932H57.3896V33.0139H65.893C70.6604 33.0139 73.3965 30.8834 73.3965 27.1677C73.3965 23.6131 70.9183 21.6578 66.4173 21.6578ZM65.7097 29.9142H61.4609V24.7546H65.7097C68.2882 24.7546 69.4972 25.6193 69.4972 27.3345C69.4972 29.0496 68.2108 29.9142 65.7097 29.9142Z" fill="white"/>
<path d="M100.794 14.4011H93.0225V33.0218H97.0955V27.7469H100.794C105.752 27.7469 108.819 25.1744 108.819 21.0641C108.819 16.9538 105.752 14.4011 100.794 14.4011ZM100.708 24.6458H97.0955V17.5022H100.708C103.316 17.5022 104.755 18.7715 104.755 21.0754C104.755 23.3793 103.316 24.6458 100.708 24.6458Z" fill="white"/>
<path d="M51.277 28.6274C50.2247 29.1892 49.0459 29.4801 47.8494 29.4732C44.2684 29.4732 41.6705 26.9524 41.6705 23.4812C41.6705 20.01 44.2684 17.4837 47.8494 17.4837C49.1408 17.462 50.4054 17.8482 51.4585 18.5857L54.3077 16.5167L54.115 16.3817C52.453 14.9409 50.2322 14.1777 47.6903 14.1777C44.9332 14.1777 42.4331 15.0924 40.6482 16.7564C39.7456 17.6131 39.0319 18.6441 38.5512 19.785C38.0706 20.926 37.8335 22.1522 37.8548 23.3875C37.8357 24.6353 38.0718 25.8741 38.5488 27.03C39.0259 28.186 39.7341 29.2351 40.6314 30.1151C42.4247 31.8452 44.9192 32.7984 47.6567 32.7984C50.5171 32.7984 53.0172 31.8149 54.71 30.0242L52.1597 28.1509L51.277 28.6274Z" fill="white"/>
<path d="M124.97 21.6578H120.015V17.5013H130.662V14.3932H115.941V33.0139H124.434C129.201 33.0139 131.937 30.8834 131.937 27.1677C131.948 23.6131 129.471 21.6578 124.97 21.6578ZM124.262 29.9142H120.015V24.7546H124.262C126.841 24.7546 128.049 25.6193 128.049 27.3345C128.049 29.0496 126.774 29.9142 124.262 29.9142Z" fill="white"/>
<path d="M178.246 32.9872H174.116V14.3665H178.246V22.1873H180.493L186.563 14.3665H191.243L184.043 23.2245L192.403 32.9872H186.924L180.78 25.6638H178.246V32.9872Z" fill="white"/>
<path d="M146.94 29.4485H138.205L136.724 33.0644H132.329L140.522 14.4437H144.916L152.976 33.0644H148.421L146.94 29.4485ZM145.572 26.0746L142.598 18.8427L139.608 26.0746H145.572Z" fill="white"/>
<path d="M158.535 14.4437V22.2194H167.08V14.4437H171.338V33.0644H167.08V25.7272H158.535V33.0644H154.277V14.4437H158.535Z" fill="white"/>
</svg>
