<svg width="189" height="31" viewBox="0 0 189 31" fill="none" xmlns="http://www.w3.org/2000/svg">
<path fill-rule="evenodd" clip-rule="evenodd" d="M185.895 1.93278V7.52853C182.996 6.43413 180.415 5.88078 178.156 5.88078C176.818 5.88078 175.753 6.12856 174.952 6.6076C174.15 7.09076 173.741 7.68548 173.741 8.38753C173.741 9.32084 174.646 10.1509 176.467 10.8943L181.728 13.4547C185.982 15.4824 188.092 18.1749 188.092 21.5572C188.092 24.3695 186.973 26.612 184.714 28.2721C182.472 29.9488 179.453 30.7789 175.695 30.7789C173.96 30.7789 172.403 30.7046 171.02 30.5476C169.637 30.399 168.047 30.0933 166.283 29.6556V23.7997C169.517 24.8941 172.461 25.4474 175.113 25.4474C178.276 25.4474 179.849 24.5306 179.849 22.6805C179.849 21.7596 179.205 21.0162 177.896 20.4339L172.052 17.9437C169.897 16.9691 168.294 15.788 167.245 14.388C166.213 12.9757 165.688 11.3568 165.688 9.5067C165.688 6.91729 166.779 4.83179 168.934 3.24597C171.107 1.67253 173.989 0.883789 177.574 0.883789C178.738 0.883789 180.081 0.98699 181.567 1.17697C183.066 1.37934 184.508 1.62712 185.895 1.93278Z" fill="white"/>
<path fill-rule="evenodd" clip-rule="evenodd" d="M20.3926 1.93278V7.52853C17.4935 6.43413 14.9166 5.88078 12.6576 5.88078C11.3154 5.88078 10.2541 6.12856 9.45293 6.6076C8.65181 7.09076 8.24295 7.68548 8.24295 8.38753C8.24295 9.32084 9.15975 10.1509 10.981 10.8943L16.2422 13.4547C20.4793 15.4824 22.5938 18.1749 22.5938 21.5572C22.5938 24.3695 21.4705 26.612 19.228 28.2721C16.9691 29.9488 13.9668 30.7789 10.1964 30.7789C8.46183 30.7789 6.90077 30.7046 5.51731 30.5476C4.13386 30.399 2.56042 30.0933 0.784706 29.6556V23.7997C4.03066 24.8941 6.97517 25.4474 9.60989 25.4474C12.7733 25.4474 14.3467 24.5306 14.3467 22.6805C14.3467 21.7596 13.7066 21.0162 12.4098 20.4339L6.56631 17.9437C4.39402 16.9691 2.79168 15.788 1.7593 14.388C0.710306 12.9757 0.198242 11.3568 0.198242 9.5067C0.198242 6.91729 1.28026 4.83179 3.44832 3.24597C5.6041 1.67253 8.49072 0.883789 12.0754 0.883789C13.2523 0.883789 14.578 0.98699 16.0812 1.17697C17.5679 1.37934 19.0092 1.62712 20.3926 1.93278Z" fill="white"/>
<path fill-rule="evenodd" clip-rule="evenodd" d="M26.4219 1.4082H34.9911V30.2544H26.4219V1.4082Z" fill="white"/>
<path fill-rule="evenodd" clip-rule="evenodd" d="M62.5981 1.4082V6.73976H49.8661V13.1366H60.9091V17.9436H49.8661V24.6586H62.8583V30.2544H41.6191V1.4082H62.5981Z" fill="white"/>
<path fill-rule="evenodd" clip-rule="evenodd" d="M102.603 1.4082V30.2544H94.6036V11.2287L86.3033 30.5187H81.3642L73.3814 11.2287V30.2544H67.5957V1.4082H78.0562L85.1965 19.0669L92.6673 1.4082H102.603Z" fill="white"/>
<path fill-rule="evenodd" clip-rule="evenodd" d="M130.199 1.4082V6.73976H117.536V13.1366H128.579V17.9436H117.536V24.6586H130.459V30.2544H109.22V1.4082H130.199Z" fill="white"/>
<path fill-rule="evenodd" clip-rule="evenodd" d="M160.267 1.4082V30.2544H151.177L140.977 11.7532V30.2544H135.195V1.4082H144.55L154.486 19.5915V1.4082H160.267Z" fill="white"/>
</svg>
